<svg width="80" height="80" viewBox="0 0 80 80" fill="none" xmlns="http://www.w3.org/2000/svg">
<rect width="80" height="80" fill="white"/>
<path d="M26.3187 19.6107V11H26.317L18 19.6088V19.6107H26.3187Z" fill="black"/>
<path d="M26.3187 19.6107V11H26.317L18 19.6088V19.6107H26.3187Z" fill="url(#paint0_linear)"/>
<path d="M39.5896 47.6342C40.5456 47.6342 41.3207 46.8319 41.3207 45.8423C41.3207 44.8527 40.5456 44.0504 39.5896 44.0504C38.6335 44.0504 37.8584 44.8527 37.8584 45.8423C37.8584 46.8319 38.6335 47.6342 39.5896 47.6342Z" fill="black"/>
<path d="M39.5896 47.6342C40.5456 47.6342 41.3207 46.8319 41.3207 45.8423C41.3207 44.8527 40.5456 44.0504 39.5896 44.0504C38.6335 44.0504 37.8584 44.8527 37.8584 45.8423C37.8584 46.8319 38.6335 47.6342 39.5896 47.6342Z" fill="url(#paint1_linear)"/>
<path d="M49.2598 37.9613L45.9869 39.8136L45.1127 39.0509C44.3897 38.4203 43.5767 37.9208 42.6963 37.5664L41.6317 37.1378V33.2794H37.548V37.1378L36.4833 37.5664C35.6031 37.9207 34.79 38.4203 34.0671 39.0508L33.1929 39.8134L29.92 37.9612L27.9609 41.6701L31.2322 43.5213C30.9632 45.05 30.9609 46.6343 31.2322 48.1632L27.9609 50.0145L29.92 53.7234L33.1929 51.8711L34.0671 52.6337C34.79 53.2644 35.6031 53.7638 36.4833 54.1182L37.548 54.5467V58.4052H41.6317V54.5469L42.6963 54.1183C43.5766 53.7639 44.3896 53.2644 45.1125 52.6337L45.9867 51.8711L49.2597 53.7234L51.2187 50.0145L47.9475 48.1632C48.2163 46.6345 48.2186 45.0503 47.9475 43.5213L51.2187 41.6701L49.2598 37.9613ZM39.5899 51.0914C36.7938 51.0914 34.5189 48.7367 34.5189 45.8425C34.5189 42.9483 36.7938 40.5936 39.5899 40.5936C42.3861 40.5936 44.6609 42.9483 44.6609 45.8425C44.6609 48.7367 42.3861 51.0914 39.5899 51.0914Z" fill="black"/>
<path d="M49.2598 37.9613L45.9869 39.8136L45.1127 39.0509C44.3897 38.4203 43.5767 37.9208 42.6963 37.5664L41.6317 37.1378V33.2794H37.548V37.1378L36.4833 37.5664C35.6031 37.9207 34.79 38.4203 34.0671 39.0508L33.1929 39.8134L29.92 37.9612L27.9609 41.6701L31.2322 43.5213C30.9632 45.05 30.9609 46.6343 31.2322 48.1632L27.9609 50.0145L29.92 53.7234L33.1929 51.8711L34.0671 52.6337C34.79 53.2644 35.6031 53.7638 36.4833 54.1182L37.548 54.5467V58.4052H41.6317V54.5469L42.6963 54.1183C43.5766 53.7639 44.3896 53.2644 45.1125 52.6337L45.9867 51.8711L49.2597 53.7234L51.2187 50.0145L47.9475 48.1632C48.2163 46.6345 48.2186 45.0503 47.9475 43.5213L51.2187 41.6701L49.2598 37.9613ZM39.5899 51.0914C36.7938 51.0914 34.5189 48.7367 34.5189 45.8425C34.5189 42.9483 36.7938 40.5936 39.5899 40.5936C42.3861 40.5936 44.6609 42.9483 44.6609 45.8425C44.6609 48.7367 42.3861 51.0914 39.5899 51.0914Z" fill="url(#paint2_linear)"/>
<path d="M29.6585 11V23.0677H18V70H61.1793V11H29.6585ZM51.5074 45.8424C51.5074 45.9719 51.5052 46.1026 51.501 46.2344L55.7513 48.6398L50.5879 58.4153L46.337 56.0097C45.9001 56.3209 45.4443 56.6009 44.9712 56.8488V61.8625H34.2078V56.8486C33.7349 56.6008 33.279 56.3208 32.842 56.0096L28.5912 58.4151L23.4278 48.6397L27.6781 46.2344C27.6737 46.1025 27.6715 45.9718 27.6715 45.8423C27.6715 45.7127 27.6737 45.5821 27.6781 45.4501L23.4278 43.0448L28.5912 33.2694L32.842 35.6749C33.279 35.3638 33.7349 35.0838 34.2078 34.8359V29.8224H44.9712V34.8361C45.4442 35.0839 45.9002 35.3641 46.337 35.6751L50.5879 33.2696L55.7513 43.0451L51.501 45.4505C51.5052 45.5822 51.5074 45.713 51.5074 45.8424V45.8424Z" fill="black"/>
<path d="M29.6585 11V23.0677H18V70H61.1793V11H29.6585ZM51.5074 45.8424C51.5074 45.9719 51.5052 46.1026 51.501 46.2344L55.7513 48.6398L50.5879 58.4153L46.337 56.0097C45.9001 56.3209 45.4443 56.6009 44.9712 56.8488V61.8625H34.2078V56.8486C33.7349 56.6008 33.279 56.3208 32.842 56.0096L28.5912 58.4151L23.4278 48.6397L27.6781 46.2344C27.6737 46.1025 27.6715 45.9718 27.6715 45.8423C27.6715 45.7127 27.6737 45.5821 27.6781 45.4501L23.4278 43.0448L28.5912 33.2694L32.842 35.6749C33.279 35.3638 33.7349 35.0838 34.2078 34.8359V29.8224H44.9712V34.8361C45.4442 35.0839 45.9002 35.3641 46.337 35.6751L50.5879 33.2696L55.7513 43.0451L51.501 45.4505C51.5052 45.5822 51.5074 45.713 51.5074 45.8424V45.8424Z" fill="url(#paint3_linear)"/>
<defs>
<linearGradient id="paint0_linear" x1="26.3187" y1="19.5755" x2="17.4971" y2="11.5529" gradientUnits="userSpaceOnUse">
<stop stop-color="#2F80ED"/>
<stop offset="1" stop-color="#56CCF2"/>
</linearGradient>
<linearGradient id="paint1_linear" x1="41.3207" y1="47.6196" x2="37.6492" y2="44.2805" gradientUnits="userSpaceOnUse">
<stop stop-color="#2F80ED"/>
<stop offset="1" stop-color="#56CCF2"/>
</linearGradient>
<linearGradient id="paint2_linear" x1="51.2187" y1="58.3027" x2="25.6047" y2="35.9834" gradientUnits="userSpaceOnUse">
<stop stop-color="#2F80ED"/>
<stop offset="1" stop-color="#56CCF2"/>
</linearGradient>
<linearGradient id="paint3_linear" x1="61.1793" y1="69.7592" x2="4.4461" y2="30.6737" gradientUnits="userSpaceOnUse">
<stop stop-color="#2F80ED"/>
<stop offset="1" stop-color="#56CCF2"/>
</linearGradient>
</defs>
</svg>
