<svg width="80" height="80" viewBox="0 0 80 80" fill="none" xmlns="http://www.w3.org/2000/svg">
<rect width="80" height="80" fill="white"/>
<path d="M55.8203 23.0079C55.8203 23.9471 56.6065 24.7072 57.5781 24.7072H61.0938C62.0654 24.7072 62.8516 23.9471 62.8516 23.0079C62.8516 22.0687 62.0654 21.3087 61.0938 21.3087H57.5781C56.6065 21.3087 55.8203 22.0687 55.8203 23.0079Z" fill="black"/>
<path d="M55.8203 23.0079C55.8203 23.9471 56.6065 24.7072 57.5781 24.7072H61.0938C62.0654 24.7072 62.8516 23.9471 62.8516 23.0079C62.8516 22.0687 62.0654 21.3087 61.0938 21.3087H57.5781C56.6065 21.3087 55.8203 22.0687 55.8203 23.0079Z" fill="url(#paint0_linear)"/>
<path d="M18.9062 24.7072H22.4219C23.3935 24.7072 24.1797 23.9471 24.1797 23.0079C24.1797 22.0687 23.3935 21.3087 22.4219 21.3087H18.9062C17.9346 21.3087 17.1484 22.0687 17.1484 23.0079C17.1484 23.9471 17.9346 24.7072 18.9062 24.7072Z" fill="black"/>
<path d="M18.9062 24.7072H22.4219C23.3935 24.7072 24.1797 23.9471 24.1797 23.0079C24.1797 22.0687 23.3935 21.3087 22.4219 21.3087H18.9062C17.9346 21.3087 17.1484 22.0687 17.1484 23.0079C17.1484 23.9471 17.9346 24.7072 18.9062 24.7072Z" fill="url(#paint1_linear)"/>
<path d="M56.1024 15.8703L59.1476 14.1711C59.9888 13.7014 60.2772 12.6628 59.7913 11.8496C59.3055 11.0382 58.2258 10.7594 57.3898 11.2274L54.3446 12.9266C53.5034 13.3963 53.215 14.4349 53.7009 15.2481C54.192 16.0678 55.2705 16.3348 56.1024 15.8703V15.8703Z" fill="black"/>
<path d="M56.1024 15.8703L59.1476 14.1711C59.9888 13.7014 60.2772 12.6628 59.7913 11.8496C59.3055 11.0382 58.2258 10.7594 57.3898 11.2274L54.3446 12.9266C53.5034 13.3963 53.215 14.4349 53.7009 15.2481C54.192 16.0678 55.2705 16.3348 56.1024 15.8703V15.8703Z" fill="url(#paint2_linear)"/>
<path d="M23.8986 30.1455L20.8534 31.8447C20.0122 32.3144 19.7238 33.353 20.2096 34.1662C20.7008 34.9859 21.7793 35.2529 22.6112 34.7884L25.6564 33.0892C26.4976 32.6195 26.786 31.5809 26.3001 30.7677C25.8126 29.9563 24.7364 29.6775 23.8986 30.1455V30.1455Z" fill="black"/>
<path d="M23.8986 30.1455L20.8534 31.8447C20.0122 32.3144 19.7238 33.353 20.2096 34.1662C20.7008 34.9859 21.7793 35.2529 22.6112 34.7884L25.6564 33.0892C26.4976 32.6195 26.786 31.5809 26.3001 30.7677C25.8126 29.9563 24.7364 29.6775 23.8986 30.1455V30.1455Z" fill="url(#paint3_linear)"/>
<path d="M54.3446 33.0892L57.3898 34.7884C58.2228 35.2537 59.3008 34.9846 59.7913 34.1662C60.2772 33.353 59.9888 32.3142 59.1476 31.8447L56.1024 30.1455C55.2612 29.6775 54.185 29.9563 53.7009 30.7677C53.215 31.5809 53.5034 32.6197 54.3446 33.0892Z" fill="black"/>
<path d="M54.3446 33.0892L57.3898 34.7884C58.2228 35.2537 59.3008 34.9846 59.7913 34.1662C60.2772 33.353 59.9888 32.3142 59.1476 31.8447L56.1024 30.1455C55.2612 29.6775 54.185 29.9563 53.7009 30.7677C53.215 31.5809 53.5034 32.6197 54.3446 33.0892Z" fill="url(#paint4_linear)"/>
<path d="M20.8534 14.1711L23.8986 15.8703C24.7316 16.3356 25.8096 16.0665 26.3001 15.2481C26.786 14.4349 26.4976 13.3962 25.6564 12.9266L22.6112 11.2274C21.7684 10.7594 20.6954 11.0382 20.2096 11.8496C19.7238 12.6628 20.0122 13.7016 20.8534 14.1711V14.1711Z" fill="black"/>
<path d="M20.8534 14.1711L23.8986 15.8703C24.7316 16.3356 25.8096 16.0665 26.3001 15.2481C26.786 14.4349 26.4976 13.3962 25.6564 12.9266L22.6112 11.2274C21.7684 10.7594 20.6954 11.0382 20.2096 11.8496C19.7238 12.6628 20.0122 13.7016 20.8534 14.1711V14.1711Z" fill="url(#paint5_linear)"/>
<path d="M66.3345 48.8775C65.6255 44.8756 61.917 41.8126 57.578 41.8126H54.0175C52.4115 39.7618 49.891 38.4142 47.0312 38.4142H32.9687C30.1089 38.4142 27.5884 39.7618 25.9824 41.8126H22.4219C18.0829 41.8126 14.3744 44.8756 13.6654 48.8775C11.547 49.5394 10 51.4416 10 53.7071C10 56.5181 12.3655 58.8048 15.2734 58.8048C16.245 58.8048 17.0312 58.0448 17.0312 57.1056C17.0312 56.1663 16.245 55.4063 15.2734 55.4063C14.3036 55.4063 13.5156 54.6446 13.5156 53.7071C13.5156 52.7696 14.3036 52.0079 15.2734 52.0079C16.2433 52.0079 17.0312 52.7696 17.0312 53.7071C17.0312 54.6463 17.8174 55.4063 18.789 55.4063C19.7606 55.4063 20.5469 54.6463 20.5469 53.7071C20.5469 51.5671 19.172 49.7383 17.2347 48.9836C17.8425 46.8171 19.9909 45.211 22.4219 45.2099H24.3575C24.2417 45.7603 24.1797 46.3285 24.1797 46.9103V55.4063H55.8202V46.9103C55.8202 46.3285 55.7582 45.7603 55.6423 45.211H57.578C60.009 45.211 62.1574 46.8171 62.7652 48.9836C60.8279 49.7383 59.453 51.5671 59.453 53.7071C59.453 54.6463 60.2392 55.4063 61.2108 55.4063C62.1824 55.4063 62.9686 54.6463 62.9686 53.7071C62.9686 52.7696 63.7566 52.0079 64.7265 52.0079C65.6963 52.0079 66.4843 52.7696 66.4843 53.7071C66.4843 54.6446 65.6963 55.4063 64.7265 55.4063C63.7549 55.4063 62.9686 56.1663 62.9686 57.1056C62.9686 58.0448 63.7549 58.8048 64.7265 58.8048C67.6343 58.8048 69.9999 56.5181 69.9999 53.7071C69.9999 51.4416 68.453 49.5394 66.3345 48.8775ZM34.7265 48.6095C34.7265 49.5487 33.9403 50.3087 32.9687 50.3087C31.9971 50.3087 31.2109 49.5487 31.2109 48.6095V45.211C31.2109 44.2718 31.9971 43.5118 32.9687 43.5118C33.9403 43.5118 34.7265 44.2718 34.7265 45.211V48.6095ZM41.7577 48.6095C41.7577 49.5487 40.9715 50.3087 39.9999 50.3087C39.0283 50.3087 38.2421 49.5487 38.2421 48.6095V45.211C38.2421 44.2718 39.0283 43.5118 39.9999 43.5118C40.9715 43.5118 41.7577 44.2718 41.7577 45.211V48.6095ZM48.789 48.6095C48.789 49.5487 48.0028 50.3087 47.0312 50.3087C46.0596 50.3087 45.2734 49.5487 45.2734 48.6095V45.211C45.2734 44.2718 46.0596 43.5118 47.0312 43.5118C48.0028 43.5118 48.789 44.2718 48.789 45.211V48.6095Z" fill="black"/>
<path d="M66.3345 48.8775C65.6255 44.8756 61.917 41.8126 57.578 41.8126H54.0175C52.4115 39.7618 49.891 38.4142 47.0312 38.4142H32.9687C30.1089 38.4142 27.5884 39.7618 25.9824 41.8126H22.4219C18.0829 41.8126 14.3744 44.8756 13.6654 48.8775C11.547 49.5394 10 51.4416 10 53.7071C10 56.5181 12.3655 58.8048 15.2734 58.8048C16.245 58.8048 17.0312 58.0448 17.0312 57.1056C17.0312 56.1663 16.245 55.4063 15.2734 55.4063C14.3036 55.4063 13.5156 54.6446 13.5156 53.7071C13.5156 52.7696 14.3036 52.0079 15.2734 52.0079C16.2433 52.0079 17.0312 52.7696 17.0312 53.7071C17.0312 54.6463 17.8174 55.4063 18.789 55.4063C19.7606 55.4063 20.5469 54.6463 20.5469 53.7071C20.5469 51.5671 19.172 49.7383 17.2347 48.9836C17.8425 46.8171 19.9909 45.211 22.4219 45.2099H24.3575C24.2417 45.7603 24.1797 46.3285 24.1797 46.9103V55.4063H55.8202V46.9103C55.8202 46.3285 55.7582 45.7603 55.6423 45.211H57.578C60.009 45.211 62.1574 46.8171 62.7652 48.9836C60.8279 49.7383 59.453 51.5671 59.453 53.7071C59.453 54.6463 60.2392 55.4063 61.2108 55.4063C62.1824 55.4063 62.9686 54.6463 62.9686 53.7071C62.9686 52.7696 63.7566 52.0079 64.7265 52.0079C65.6963 52.0079 66.4843 52.7696 66.4843 53.7071C66.4843 54.6446 65.6963 55.4063 64.7265 55.4063C63.7549 55.4063 62.9686 56.1663 62.9686 57.1056C62.9686 58.0448 63.7549 58.8048 64.7265 58.8048C67.6343 58.8048 69.9999 56.5181 69.9999 53.7071C69.9999 51.4416 68.453 49.5394 66.3345 48.8775ZM34.7265 48.6095C34.7265 49.5487 33.9403 50.3087 32.9687 50.3087C31.9971 50.3087 31.2109 49.5487 31.2109 48.6095V45.211C31.2109 44.2718 31.9971 43.5118 32.9687 43.5118C33.9403 43.5118 34.7265 44.2718 34.7265 45.211V48.6095ZM41.7577 48.6095C41.7577 49.5487 40.9715 50.3087 39.9999 50.3087C39.0283 50.3087 38.2421 49.5487 38.2421 48.6095V45.211C38.2421 44.2718 39.0283 43.5118 39.9999 43.5118C40.9715 43.5118 41.7577 44.2718 41.7577 45.211V48.6095ZM48.789 48.6095C48.789 49.5487 48.0028 50.3087 47.0312 50.3087C46.0596 50.3087 45.2734 49.5487 45.2734 48.6095V45.211C45.2734 44.2718 46.0596 43.5118 47.0312 43.5118C48.0028 43.5118 48.789 44.2718 48.789 45.211V48.6095Z" fill="url(#paint6_linear)"/>
<path d="M33.6202 35.0157H46.3813C47.6031 32.4786 49.4126 30.8845 50.1885 29.8036C51.5738 27.862 52.3085 25.4389 52.3102 23.0079C52.3136 16.5934 47.1007 10.9712 39.9484 11.0001C32.832 11.029 27.6697 16.6381 27.6905 23.0444C27.699 25.4588 28.4321 27.8704 29.8122 29.8019C30.5912 30.8988 32.3831 32.4466 33.6202 35.0157V35.0157ZM36.4847 21.3087C37.4563 21.3087 38.2425 22.0687 38.2425 23.0079C38.2425 23.9454 39.0305 24.7071 40.0003 24.7071C40.9702 24.7071 41.7581 23.9454 41.7581 23.0079C41.7581 22.0687 42.5444 21.3087 43.516 21.3087C44.4876 21.3087 45.2738 22.0687 45.2738 23.0079C45.2738 25.8189 42.9082 28.1056 40.0003 28.1056C37.0924 28.1056 34.7269 25.8189 34.7269 23.0079C34.7269 22.0687 35.5131 21.3087 36.4847 21.3087Z" fill="black"/>
<path d="M33.6202 35.0157H46.3813C47.6031 32.4786 49.4126 30.8845 50.1885 29.8036C51.5738 27.862 52.3085 25.4389 52.3102 23.0079C52.3136 16.5934 47.1007 10.9712 39.9484 11.0001C32.832 11.029 27.6697 16.6381 27.6905 23.0444C27.699 25.4588 28.4321 27.8704 29.8122 29.8019C30.5912 30.8988 32.3831 32.4466 33.6202 35.0157V35.0157ZM36.4847 21.3087C37.4563 21.3087 38.2425 22.0687 38.2425 23.0079C38.2425 23.9454 39.0305 24.7071 40.0003 24.7071C40.9702 24.7071 41.7581 23.9454 41.7581 23.0079C41.7581 22.0687 42.5444 21.3087 43.516 21.3087C44.4876 21.3087 45.2738 22.0687 45.2738 23.0079C45.2738 25.8189 42.9082 28.1056 40.0003 28.1056C37.0924 28.1056 34.7269 25.8189 34.7269 23.0079C34.7269 22.0687 35.5131 21.3087 36.4847 21.3087Z" fill="url(#paint7_linear)"/>
<path d="M59.3359 63.9025C59.3359 61.0915 56.9704 58.8048 54.0625 58.8048H25.9375C23.0296 58.8048 20.6641 61.0915 20.6641 63.9025C20.6641 66.7134 23.0296 69.0001 25.9375 69.0001H54.0625C56.9705 69.0001 59.3359 66.7134 59.3359 63.9025ZM35.0505 65.6017H30.8873C31.0843 65.0676 31.2111 64.501 31.2111 63.9025C31.2111 63.3039 31.0843 62.7374 30.8873 62.2021H35.0505C34.8535 62.7374 34.7267 63.3039 34.7267 63.9025C34.7267 64.501 34.8535 65.0676 35.0505 65.6017ZM49.113 65.6017H44.9498C45.1468 65.0676 45.2736 64.501 45.2736 63.9025C45.2736 63.3039 45.1468 62.7374 44.9498 62.2021H49.113C48.916 62.7374 48.7892 63.3039 48.7892 63.9025C48.7892 64.501 48.916 65.0676 49.113 65.6017Z" fill="black"/>
<path d="M59.3359 63.9025C59.3359 61.0915 56.9704 58.8048 54.0625 58.8048H25.9375C23.0296 58.8048 20.6641 61.0915 20.6641 63.9025C20.6641 66.7134 23.0296 69.0001 25.9375 69.0001H54.0625C56.9705 69.0001 59.3359 66.7134 59.3359 63.9025ZM35.0505 65.6017H30.8873C31.0843 65.0676 31.2111 64.501 31.2111 63.9025C31.2111 63.3039 31.0843 62.7374 30.8873 62.2021H35.0505C34.8535 62.7374 34.7267 63.3039 34.7267 63.9025C34.7267 64.501 34.8535 65.0676 35.0505 65.6017ZM49.113 65.6017H44.9498C45.1468 65.0676 45.2736 64.501 45.2736 63.9025C45.2736 63.3039 45.1468 62.7374 44.9498 62.2021H49.113C48.916 62.7374 48.7892 63.3039 48.7892 63.9025C48.7892 64.501 48.916 65.0676 49.113 65.6017Z" fill="url(#paint8_linear)"/>
<defs>
<linearGradient id="paint0_linear" x1="62.8516" y1="24.6933" x2="60.0094" y2="19.1578" gradientUnits="userSpaceOnUse">
<stop stop-color="#2F80ED"/>
<stop offset="1" stop-color="#56CCF2"/>
</linearGradient>
<linearGradient id="paint1_linear" x1="24.1797" y1="24.6933" x2="21.3376" y2="19.1578" gradientUnits="userSpaceOnUse">
<stop stop-color="#2F80ED"/>
<stop offset="1" stop-color="#56CCF2"/>
</linearGradient>
<linearGradient id="paint2_linear" x1="60.0273" y1="16.0768" x2="54.8772" y2="9.83502" gradientUnits="userSpaceOnUse">
<stop stop-color="#2F80ED"/>
<stop offset="1" stop-color="#56CCF2"/>
</linearGradient>
<linearGradient id="paint3_linear" x1="26.5361" y1="34.9949" x2="21.386" y2="28.7531" gradientUnits="userSpaceOnUse">
<stop stop-color="#2F80ED"/>
<stop offset="1" stop-color="#56CCF2"/>
</linearGradient>
<linearGradient id="paint4_linear" x1="60.0273" y1="34.995" x2="54.8771" y2="28.7532" gradientUnits="userSpaceOnUse">
<stop stop-color="#2F80ED"/>
<stop offset="1" stop-color="#56CCF2"/>
</linearGradient>
<linearGradient id="paint5_linear" x1="26.5361" y1="16.0769" x2="21.3859" y2="9.83508" gradientUnits="userSpaceOnUse">
<stop stop-color="#2F80ED"/>
<stop offset="1" stop-color="#56CCF2"/>
</linearGradient>
<linearGradient id="paint6_linear" x1="69.9999" y1="58.7216" x2="56.5957" y2="21.5924" gradientUnits="userSpaceOnUse">
<stop stop-color="#2F80ED"/>
<stop offset="1" stop-color="#56CCF2"/>
</linearGradient>
<linearGradient id="paint7_linear" x1="52.3102" y1="34.9177" x2="27.6111" y2="11.0822" gradientUnits="userSpaceOnUse">
<stop stop-color="#2F80ED"/>
<stop offset="1" stop-color="#56CCF2"/>
</linearGradient>
<linearGradient id="paint8_linear" x1="59.3359" y1="68.9585" x2="53.8866" y2="49.5005" gradientUnits="userSpaceOnUse">
<stop stop-color="#2F80ED"/>
<stop offset="1" stop-color="#56CCF2"/>
</linearGradient>
</defs>
</svg>
