<svg width="80" height="80" viewBox="0 0 80 80" fill="none" xmlns="http://www.w3.org/2000/svg">
<rect width="80" height="80" fill="white"/>
<path d="M21.3936 15.1428H22.4293V16.1785H21.3936V15.1428Z" fill="black"/>
<path d="M21.3936 15.1428H22.4293V16.1785H21.3936V15.1428Z" fill="url(#paint0_linear)"/>
<path d="M28.6426 15.1428H29.6783V16.1785H28.6426V15.1428Z" fill="black"/>
<path d="M28.6426 15.1428H29.6783V16.1785H28.6426V15.1428Z" fill="url(#paint1_linear)"/>
<path d="M49.3572 18.25C49.3572 17.9753 49.248 17.7119 49.0538 17.5176C48.8596 17.3234 48.5961 17.2143 48.3214 17.2143H38.7307C38.1538 17.2149 37.5882 17.0543 37.0977 16.7505C36.6072 16.4467 36.2114 16.0118 35.955 15.495L33.9872 11.58C33.9017 11.4057 33.7691 11.2589 33.6043 11.1563C33.4394 11.0538 33.2491 10.9996 33.055 11H11.0357C10.761 11 10.4976 11.1091 10.3034 11.3034C10.1091 11.4976 10 11.761 10 12.0357V20.3214H49.3572V18.25ZM17.25 17.2143C17.25 17.489 17.1409 17.7524 16.9466 17.9467C16.7524 18.1409 16.489 18.25 16.2143 18.25H13.1071C12.8325 18.25 12.569 18.1409 12.3748 17.9467C12.1805 17.7524 12.0714 17.489 12.0714 17.2143V14.1071C12.0714 13.8325 12.1805 13.569 12.3748 13.3748C12.569 13.1806 12.8325 13.0714 13.1071 13.0714H16.2143C16.489 13.0714 16.7524 13.1806 16.9466 13.3748C17.1409 13.569 17.25 13.8325 17.25 14.1071V17.2143ZM24.5 17.2143C24.5 17.489 24.3909 17.7524 24.1967 17.9467C24.0024 18.1409 23.739 18.25 23.4643 18.25H20.3571C20.0825 18.25 19.819 18.1409 19.6248 17.9467C19.4306 17.7524 19.3214 17.489 19.3214 17.2143V14.1071C19.3214 13.8325 19.4306 13.569 19.6248 13.3748C19.819 13.1806 20.0825 13.0714 20.3571 13.0714H23.4643C23.739 13.0714 24.0024 13.1806 24.1967 13.3748C24.3909 13.569 24.5 13.8325 24.5 14.1071V17.2143ZM31.75 17.2143C31.75 17.489 31.6409 17.7524 31.4467 17.9467C31.2524 18.1409 30.989 18.25 30.7143 18.25H27.6072C27.3325 18.25 27.069 18.1409 26.8748 17.9467C26.6806 17.7524 26.5714 17.489 26.5714 17.2143V14.1071C26.5714 13.8325 26.6806 13.569 26.8748 13.3748C27.069 13.1806 27.3325 13.0714 27.6072 13.0714H30.7143C30.989 13.0714 31.2524 13.1806 31.4467 13.3748C31.6409 13.569 31.75 13.8325 31.75 14.1071V17.2143Z" fill="black"/>
<path d="M49.3572 18.25C49.3572 17.9753 49.248 17.7119 49.0538 17.5176C48.8596 17.3234 48.5961 17.2143 48.3214 17.2143H38.7307C38.1538 17.2149 37.5882 17.0543 37.0977 16.7505C36.6072 16.4467 36.2114 16.0118 35.955 15.495L33.9872 11.58C33.9017 11.4057 33.7691 11.2589 33.6043 11.1563C33.4394 11.0538 33.2491 10.9996 33.055 11H11.0357C10.761 11 10.4976 11.1091 10.3034 11.3034C10.1091 11.4976 10 11.761 10 12.0357V20.3214H49.3572V18.25ZM17.25 17.2143C17.25 17.489 17.1409 17.7524 16.9466 17.9467C16.7524 18.1409 16.489 18.25 16.2143 18.25H13.1071C12.8325 18.25 12.569 18.1409 12.3748 17.9467C12.1805 17.7524 12.0714 17.489 12.0714 17.2143V14.1071C12.0714 13.8325 12.1805 13.569 12.3748 13.3748C12.569 13.1806 12.8325 13.0714 13.1071 13.0714H16.2143C16.489 13.0714 16.7524 13.1806 16.9466 13.3748C17.1409 13.569 17.25 13.8325 17.25 14.1071V17.2143ZM24.5 17.2143C24.5 17.489 24.3909 17.7524 24.1967 17.9467C24.0024 18.1409 23.739 18.25 23.4643 18.25H20.3571C20.0825 18.25 19.819 18.1409 19.6248 17.9467C19.4306 17.7524 19.3214 17.489 19.3214 17.2143V14.1071C19.3214 13.8325 19.4306 13.569 19.6248 13.3748C19.819 13.1806 20.0825 13.0714 20.3571 13.0714H23.4643C23.739 13.0714 24.0024 13.1806 24.1967 13.3748C24.3909 13.569 24.5 13.8325 24.5 14.1071V17.2143ZM31.75 17.2143C31.75 17.489 31.6409 17.7524 31.4467 17.9467C31.2524 18.1409 30.989 18.25 30.7143 18.25H27.6072C27.3325 18.25 27.069 18.1409 26.8748 17.9467C26.6806 17.7524 26.5714 17.489 26.5714 17.2143V14.1071C26.5714 13.8325 26.6806 13.569 26.8748 13.3748C27.069 13.1806 27.3325 13.0714 27.6072 13.0714H30.7143C30.989 13.0714 31.2524 13.1806 31.4467 13.3748C31.6409 13.569 31.75 13.8325 31.75 14.1071V17.2143Z" fill="url(#paint2_linear)"/>
<path d="M14.1436 15.1428H15.1793V16.1785H14.1436V15.1428Z" fill="black"/>
<path d="M14.1436 15.1428H15.1793V16.1785H14.1436V15.1428Z" fill="url(#paint3_linear)"/>
<path d="M38.7306 15.1429H45.6077L44.862 13.6411C44.7759 13.4681 44.6428 13.3229 44.4779 13.2222C44.313 13.1214 44.1231 13.0692 43.9299 13.0715H37.0527L37.7984 14.5629C37.8839 14.7372 38.0165 14.884 38.1813 14.9866C38.3462 15.0891 38.5365 15.1433 38.7306 15.1429V15.1429Z" fill="black"/>
<path d="M38.7306 15.1429H45.6077L44.862 13.6411C44.7759 13.4681 44.6428 13.3229 44.4779 13.2222C44.313 13.1214 44.1231 13.0692 43.9299 13.0715H37.0527L37.7984 14.5629C37.8839 14.7372 38.0165 14.884 38.1813 14.9866C38.3462 15.0891 38.5365 15.1433 38.7306 15.1429V15.1429Z" fill="url(#paint4_linear)"/>
<path d="M60.7499 60.7142C60.7499 59.6154 60.3134 58.5617 59.5365 57.7848C58.7596 57.0078 57.7058 56.5713 56.6071 56.5713H54.5253C54.3337 56.5722 54.1458 56.5192 53.9828 56.4185C53.8198 56.3178 53.6884 56.1734 53.6035 56.0017C53.5162 55.8297 53.4787 55.6368 53.4952 55.4447C53.5117 55.2525 53.5815 55.0688 53.6967 54.9142C54.2198 54.2101 54.6417 53.4361 54.9499 52.6149C55.3628 51.566 55.5736 50.4485 55.5713 49.3213C55.5204 46.9007 54.5295 44.5949 52.8085 42.8919C51.0876 41.1888 48.7715 40.2223 46.3504 40.1967C43.9294 40.1711 41.5934 41.0886 39.8368 42.7549C38.0802 44.4211 37.0409 46.7055 36.9388 49.1245C36.9347 49.3509 36.8565 49.5697 36.7162 49.7474C36.5759 49.9251 36.3813 50.0519 36.1621 50.1085C35.9421 50.1631 35.7103 50.1452 35.5013 50.0575C35.2923 49.9698 35.1172 49.8169 35.0021 49.6217C34.3085 48.3962 33.2472 47.4198 31.9682 46.8305C30.6893 46.2413 29.2575 46.069 27.8753 46.3381C26.4931 46.6072 25.2305 47.3041 24.266 48.3301C23.3016 49.3562 22.6841 50.6594 22.501 52.0556C23.5378 52.487 24.4763 53.1243 25.2597 53.929C26.043 54.7337 26.6548 55.689 27.0581 56.737C27.9831 56.0584 29.0783 55.6497 30.2217 55.5563C31.3651 55.4629 32.5121 55.6885 33.535 56.208C34.5578 56.7275 35.4166 57.5205 36.0157 58.4989C36.6148 59.4773 36.9308 60.6027 36.9285 61.7499C36.927 62.0967 36.8993 62.443 36.8456 62.7856H36.9285C37.6519 62.7879 38.362 62.9805 38.9874 63.3441C39.6128 63.7077 40.1315 64.2295 40.4913 64.8571H56.6071C57.7058 64.8571 58.7596 64.4206 59.5365 63.6436C60.3134 62.8667 60.7499 61.8129 60.7499 60.7142V60.7142Z" fill="black"/>
<path d="M60.7499 60.7142C60.7499 59.6154 60.3134 58.5617 59.5365 57.7848C58.7596 57.0078 57.7058 56.5713 56.6071 56.5713H54.5253C54.3337 56.5722 54.1458 56.5192 53.9828 56.4185C53.8198 56.3178 53.6884 56.1734 53.6035 56.0017C53.5162 55.8297 53.4787 55.6368 53.4952 55.4447C53.5117 55.2525 53.5815 55.0688 53.6967 54.9142C54.2198 54.2101 54.6417 53.4361 54.9499 52.6149C55.3628 51.566 55.5736 50.4485 55.5713 49.3213C55.5204 46.9007 54.5295 44.5949 52.8085 42.8919C51.0876 41.1888 48.7715 40.2223 46.3504 40.1967C43.9294 40.1711 41.5934 41.0886 39.8368 42.7549C38.0802 44.4211 37.0409 46.7055 36.9388 49.1245C36.9347 49.3509 36.8565 49.5697 36.7162 49.7474C36.5759 49.9251 36.3813 50.0519 36.1621 50.1085C35.9421 50.1631 35.7103 50.1452 35.5013 50.0575C35.2923 49.9698 35.1172 49.8169 35.0021 49.6217C34.3085 48.3962 33.2472 47.4198 31.9682 46.8305C30.6893 46.2413 29.2575 46.069 27.8753 46.3381C26.4931 46.6072 25.2305 47.3041 24.266 48.3301C23.3016 49.3562 22.6841 50.6594 22.501 52.0556C23.5378 52.487 24.4763 53.1243 25.2597 53.929C26.043 54.7337 26.6548 55.689 27.0581 56.737C27.9831 56.0584 29.0783 55.6497 30.2217 55.5563C31.3651 55.4629 32.5121 55.6885 33.535 56.208C34.5578 56.7275 35.4166 57.5205 36.0157 58.4989C36.6148 59.4773 36.9308 60.6027 36.9285 61.7499C36.927 62.0967 36.8993 62.443 36.8456 62.7856H36.9285C37.6519 62.7879 38.362 62.9805 38.9874 63.3441C39.6128 63.7077 40.1315 64.2295 40.4913 64.8571H56.6071C57.7058 64.8571 58.7596 64.4206 59.5365 63.6436C60.3134 62.8667 60.7499 61.8129 60.7499 60.7142V60.7142Z" fill="url(#paint5_linear)"/>
<path d="M36.9286 64.8572H35.4579C35.2857 64.8569 35.1164 64.8142 34.9646 64.7329C34.8129 64.6516 34.6835 64.5342 34.5879 64.3911C34.4961 64.2458 34.4407 64.0806 34.4263 63.9093C34.4119 63.738 34.4389 63.5658 34.505 63.4072C34.7392 62.8863 34.8593 62.3212 34.8572 61.7501C34.8592 60.8717 34.5814 60.0155 34.0639 59.3057C33.5464 58.5959 32.8162 58.0695 31.9792 57.8028C31.1423 57.5361 30.2421 57.5431 29.4094 57.8227C28.5767 58.1022 27.8547 58.6399 27.3482 59.3576C27.2268 59.5268 27.0567 59.6551 26.8606 59.7254C26.6645 59.7957 26.4517 59.8047 26.2504 59.7511C26.0485 59.7009 25.8664 59.5911 25.7279 59.4359C25.5893 59.2807 25.5007 59.0874 25.4736 58.8811C25.2741 57.3141 24.4848 55.8821 23.2663 54.8767C22.0479 53.8713 20.4921 53.3682 18.9157 53.4699C17.3393 53.5716 15.8609 54.2703 14.7818 55.4239C13.7026 56.5774 13.1037 58.099 13.1071 59.6786C13.1039 60.95 13.4946 62.1911 14.2257 63.2311C14.3337 63.3856 14.3975 63.5665 14.4103 63.7545C14.423 63.9424 14.3843 64.1303 14.2982 64.2979C14.2089 64.4653 14.0762 64.6056 13.914 64.704C13.7518 64.8024 13.5661 64.8554 13.3764 64.8572H12.0714C11.5221 64.8572 10.9952 65.0755 10.6067 65.4639C10.2182 65.8524 10 66.3793 10 66.9286C10 67.478 10.2182 68.0049 10.6067 68.3934C10.9952 68.7818 11.5221 69.0001 12.0714 69.0001H36.9286C37.478 69.0001 38.0048 68.7818 38.3933 68.3934C38.7818 68.0049 39 67.478 39 66.9286C39 66.3793 38.7818 65.8524 38.3933 65.4639C38.0048 65.0755 37.478 64.8572 36.9286 64.8572V64.8572Z" fill="black"/>
<path d="M36.9286 64.8572H35.4579C35.2857 64.8569 35.1164 64.8142 34.9646 64.7329C34.8129 64.6516 34.6835 64.5342 34.5879 64.3911C34.4961 64.2458 34.4407 64.0806 34.4263 63.9093C34.4119 63.738 34.4389 63.5658 34.505 63.4072C34.7392 62.8863 34.8593 62.3212 34.8572 61.7501C34.8592 60.8717 34.5814 60.0155 34.0639 59.3057C33.5464 58.5959 32.8162 58.0695 31.9792 57.8028C31.1423 57.5361 30.2421 57.5431 29.4094 57.8227C28.5767 58.1022 27.8547 58.6399 27.3482 59.3576C27.2268 59.5268 27.0567 59.6551 26.8606 59.7254C26.6645 59.7957 26.4517 59.8047 26.2504 59.7511C26.0485 59.7009 25.8664 59.5911 25.7279 59.4359C25.5893 59.2807 25.5007 59.0874 25.4736 58.8811C25.2741 57.3141 24.4848 55.8821 23.2663 54.8767C22.0479 53.8713 20.4921 53.3682 18.9157 53.4699C17.3393 53.5716 15.8609 54.2703 14.7818 55.4239C13.7026 56.5774 13.1037 58.099 13.1071 59.6786C13.1039 60.95 13.4946 62.1911 14.2257 63.2311C14.3337 63.3856 14.3975 63.5665 14.4103 63.7545C14.423 63.9424 14.3843 64.1303 14.2982 64.2979C14.2089 64.4653 14.0762 64.6056 13.914 64.704C13.7518 64.8024 13.5661 64.8554 13.3764 64.8572H12.0714C11.5221 64.8572 10.9952 65.0755 10.6067 65.4639C10.2182 65.8524 10 66.3793 10 66.9286C10 67.478 10.2182 68.0049 10.6067 68.3934C10.9952 68.7818 11.5221 69.0001 12.0714 69.0001H36.9286C37.478 69.0001 38.0048 68.7818 38.3933 68.3934C38.7818 68.0049 39 67.478 39 66.9286C39 66.3793 38.7818 65.8524 38.3933 65.4639C38.0048 65.0755 37.478 64.8572 36.9286 64.8572V64.8572Z" fill="url(#paint6_linear)"/>
<path d="M46.25 37.9285C47.3017 37.9283 48.3479 38.0783 49.3572 38.3739V22.3928H10V41.0357C10 41.3104 10.1091 41.5738 10.3034 41.768C10.4976 41.9623 10.761 42.0714 11.0357 42.0714H37.4464C38.5139 40.7702 39.8579 39.7232 41.3807 39.0065C42.9036 38.2899 44.567 37.9216 46.25 37.9285Z" fill="black"/>
<path d="M46.25 37.9285C47.3017 37.9283 48.3479 38.0783 49.3572 38.3739V22.3928H10V41.0357C10 41.3104 10.1091 41.5738 10.3034 41.768C10.4976 41.9623 10.761 42.0714 11.0357 42.0714H37.4464C38.5139 40.7702 39.8579 39.7232 41.3807 39.0065C42.9036 38.2899 44.567 37.9216 46.25 37.9285Z" fill="url(#paint7_linear)"/>
<path d="M65.9283 64.8571H64.6233C64.4336 64.8552 64.2479 64.8023 64.0857 64.7039C63.9235 64.6055 63.7908 64.4652 63.7015 64.2978C63.6155 64.1302 63.5767 63.9423 63.5895 63.7543C63.6023 63.5664 63.6661 63.3854 63.774 63.231C64.5051 62.1909 64.8959 60.9498 64.8926 59.6785C64.8926 58.0304 64.2379 56.4498 63.0725 55.2844C61.9071 54.119 60.3265 53.4642 58.6783 53.4642C58.0008 53.4632 57.3281 53.5788 56.6898 53.806C56.5965 54.0339 56.5033 54.2721 56.3894 54.5H56.6069C58.255 54.5 59.8357 55.1547 61.0011 56.3201C62.1665 57.4855 62.8212 59.0661 62.8212 60.7142C62.8212 62.3624 62.1665 63.943 61.0011 65.1084C59.8357 66.2738 58.255 66.9285 56.6069 66.9285H41.0712C41.0646 67.6252 40.883 68.309 40.543 68.9171C40.7138 68.9714 40.8919 68.9994 41.0712 69H65.9283C66.4777 69 67.0046 68.7817 67.3931 68.3933C67.7815 68.0048 67.9998 67.4779 67.9998 66.9285C67.9998 66.3792 67.7815 65.8523 67.3931 65.4638C67.0046 65.0753 66.4777 64.8571 65.9283 64.8571Z" fill="black"/>
<path d="M65.9283 64.8571H64.6233C64.4336 64.8552 64.2479 64.8023 64.0857 64.7039C63.9235 64.6055 63.7908 64.4652 63.7015 64.2978C63.6155 64.1302 63.5767 63.9423 63.5895 63.7543C63.6023 63.5664 63.6661 63.3854 63.774 63.231C64.5051 62.1909 64.8959 60.9498 64.8926 59.6785C64.8926 58.0304 64.2379 56.4498 63.0725 55.2844C61.9071 54.119 60.3265 53.4642 58.6783 53.4642C58.0008 53.4632 57.3281 53.5788 56.6898 53.806C56.5965 54.0339 56.5033 54.2721 56.3894 54.5H56.6069C58.255 54.5 59.8357 55.1547 61.0011 56.3201C62.1665 57.4855 62.8212 59.0661 62.8212 60.7142C62.8212 62.3624 62.1665 63.943 61.0011 65.1084C59.8357 66.2738 58.255 66.9285 56.6069 66.9285H41.0712C41.0646 67.6252 40.883 68.309 40.543 68.9171C40.7138 68.9714 40.8919 68.9994 41.0712 69H65.9283C66.4777 69 67.0046 68.7817 67.3931 68.3933C67.7815 68.0048 67.9998 67.4779 67.9998 66.9285C67.9998 66.3792 67.7815 65.8523 67.3931 65.4638C67.0046 65.0753 66.4777 64.8571 65.9283 64.8571Z" fill="url(#paint8_linear)"/>
<path d="M53.5 35.8573H55.5714V37.9287H53.5V35.8573Z" fill="black"/>
<path d="M53.5 35.8573H55.5714V37.9287H53.5V35.8573Z" fill="url(#paint9_linear)"/>
<path d="M64.8936 49.3216H62.8221V37.9287H57.6436V35.8573H63.8578C64.1325 35.8573 64.396 35.9664 64.5902 36.1607C64.7844 36.3549 64.8936 36.6183 64.8936 36.893V49.3216Z" fill="black"/>
<path d="M64.8936 49.3216H62.8221V37.9287H57.6436V35.8573H63.8578C64.1325 35.8573 64.396 35.9664 64.5902 36.1607C64.7844 36.3549 64.8936 36.6183 64.8936 36.893V49.3216Z" fill="url(#paint10_linear)"/>
<path d="M53.5 30.6786H55.5714V32.75H53.5V30.6786Z" fill="black"/>
<path d="M53.5 30.6786H55.5714V32.75H53.5V30.6786Z" fill="url(#paint11_linear)"/>
<path d="M70.0721 54.5H68.0007V32.75H57.6436V30.6786H69.0364C69.3111 30.6786 69.5745 30.7877 69.7688 30.9819C69.963 31.1762 70.0721 31.4396 70.0721 31.7143V54.5Z" fill="black"/>
<path d="M70.0721 54.5H68.0007V32.75H57.6436V30.6786H69.0364C69.3111 30.6786 69.5745 30.7877 69.7688 30.9819C69.963 31.1762 70.0721 31.4396 70.0721 31.7143V54.5Z" fill="url(#paint12_linear)"/>
<defs>
<linearGradient id="paint0_linear" x1="22.4293" y1="16.1743" x2="21.3654" y2="15.1728" gradientUnits="userSpaceOnUse">
<stop stop-color="#2F80ED"/>
<stop offset="1" stop-color="#56CCF2"/>
</linearGradient>
<linearGradient id="paint1_linear" x1="29.6783" y1="16.1743" x2="28.6144" y2="15.1728" gradientUnits="userSpaceOnUse">
<stop stop-color="#2F80ED"/>
<stop offset="1" stop-color="#56CCF2"/>
</linearGradient>
<linearGradient id="paint2_linear" x1="49.3572" y1="20.2834" x2="44.8175" y2="2.24004" gradientUnits="userSpaceOnUse">
<stop stop-color="#2F80ED"/>
<stop offset="1" stop-color="#56CCF2"/>
</linearGradient>
<linearGradient id="paint3_linear" x1="15.1793" y1="16.1743" x2="14.1154" y2="15.1728" gradientUnits="userSpaceOnUse">
<stop stop-color="#2F80ED"/>
<stop offset="1" stop-color="#56CCF2"/>
</linearGradient>
<linearGradient id="paint4_linear" x1="45.6077" y1="15.1345" x2="44.5791" y2="11.1355" gradientUnits="userSpaceOnUse">
<stop stop-color="#2F80ED"/>
<stop offset="1" stop-color="#56CCF2"/>
</linearGradient>
<linearGradient id="paint5_linear" x1="60.7499" y1="64.7564" x2="37.0863" y2="30.2065" gradientUnits="userSpaceOnUse">
<stop stop-color="#2F80ED"/>
<stop offset="1" stop-color="#56CCF2"/>
</linearGradient>
<linearGradient id="paint6_linear" x1="39" y1="68.9366" x2="25.2448" y2="44.7773" gradientUnits="userSpaceOnUse">
<stop stop-color="#2F80ED"/>
<stop offset="1" stop-color="#56CCF2"/>
</linearGradient>
<linearGradient id="paint7_linear" x1="49.3572" y1="41.9911" x2="32.578" y2="10.4006" gradientUnits="userSpaceOnUse">
<stop stop-color="#2F80ED"/>
<stop offset="1" stop-color="#56CCF2"/>
</linearGradient>
<linearGradient id="paint8_linear" x1="67.9998" y1="68.9365" x2="53.8809" y2="45.4471" gradientUnits="userSpaceOnUse">
<stop stop-color="#2F80ED"/>
<stop offset="1" stop-color="#56CCF2"/>
</linearGradient>
<linearGradient id="paint9_linear" x1="55.5714" y1="37.9203" x2="53.4436" y2="35.9172" gradientUnits="userSpaceOnUse">
<stop stop-color="#2F80ED"/>
<stop offset="1" stop-color="#56CCF2"/>
</linearGradient>
<linearGradient id="paint10_linear" x1="64.8936" y1="49.2666" x2="53.7179" y2="43.6019" gradientUnits="userSpaceOnUse">
<stop stop-color="#2F80ED"/>
<stop offset="1" stop-color="#56CCF2"/>
</linearGradient>
<linearGradient id="paint11_linear" x1="55.5714" y1="32.7416" x2="53.4436" y2="30.7385" gradientUnits="userSpaceOnUse">
<stop stop-color="#2F80ED"/>
<stop offset="1" stop-color="#56CCF2"/>
</linearGradient>
<linearGradient id="paint12_linear" x1="70.0721" y1="54.4028" x2="50.6714" y2="44.8743" gradientUnits="userSpaceOnUse">
<stop stop-color="#2F80ED"/>
<stop offset="1" stop-color="#56CCF2"/>
</linearGradient>
</defs>
</svg>
