<svg width="80" height="80" viewBox="0 0 80 80" fill="none" xmlns="http://www.w3.org/2000/svg">
<rect width="80" height="80" fill="white"/>
<path d="M64.2051 31.2992C61.9499 31.2992 59.8872 30.5251 58.347 29.2516V38.6652H51.3338C51.9664 37.3918 52.2964 35.9685 52.2964 34.5203C52.2964 28.7273 47.0984 24.033 40.7452 24.033C34.3645 24.033 29.194 28.7273 29.194 34.5203C29.194 35.9685 29.524 37.3918 30.1291 38.6652H21.6582V12.6718C21.6582 11.1985 22.9783 10 24.601 10H55.4042C57.0269 10 58.347 11.1985 58.347 12.6718V17.3661C60.3272 15.743 63.105 14.944 66.1028 15.5183C69.4857 16.1425 72.236 18.7144 72.8411 21.8107C73.8862 26.8795 69.6232 31.2992 64.2051 31.2992V31.2992Z" fill="black"/>
<path d="M64.2051 31.2992C61.9499 31.2992 59.8872 30.5251 58.347 29.2516V38.6652H51.3338C51.9664 37.3918 52.2964 35.9685 52.2964 34.5203C52.2964 28.7273 47.0984 24.033 40.7452 24.033C34.3645 24.033 29.194 28.7273 29.194 34.5203C29.194 35.9685 29.524 37.3918 30.1291 38.6652H21.6582V12.6718C21.6582 11.1985 22.9783 10 24.601 10H55.4042C57.0269 10 58.347 11.1985 58.347 12.6718V17.3661C60.3272 15.743 63.105 14.944 66.1028 15.5183C69.4857 16.1425 72.236 18.7144 72.8411 21.8107C73.8862 26.8795 69.6232 31.2992 64.2051 31.2992V31.2992Z" fill="url(#paint0_linear)"/>
<path d="M43.8149 52.4286C42.789 57.5149 47.041 61.937 52.4673 61.937C54.7253 61.937 56.7797 61.1655 58.3336 59.887V67.2656C58.3336 68.7313 57.0135 69.9298 55.4018 69.9298H24.6041C22.9897 69.9298 21.6723 68.7313 21.6723 67.2656V59.887C19.6784 61.5126 16.8923 62.3116 13.9 61.7523C10.5281 61.113 7.76961 58.5561 7.15355 55.4674C6.12769 50.3786 10.3796 45.9564 15.806 45.9564C18.0639 45.9564 20.1184 46.728 21.6723 48.0064V41.1697H35.8693C33.493 39.7315 31.9391 37.3069 31.9391 34.5103C31.9391 30.0882 35.8693 26.52 40.7373 26.52C45.6053 26.52 49.5355 30.0882 49.5355 34.5103C49.5355 37.3069 47.9816 39.7315 45.6053 41.1697H58.3336V48.0064C56.3397 46.3809 53.5536 45.5819 50.5613 46.1412C47.1895 46.7829 44.4309 49.3398 43.8149 52.4286V52.4286Z" fill="black"/>
<path d="M43.8149 52.4286C42.789 57.5149 47.041 61.937 52.4673 61.937C54.7253 61.937 56.7797 61.1655 58.3336 59.887V67.2656C58.3336 68.7313 57.0135 69.9298 55.4018 69.9298H24.6041C22.9897 69.9298 21.6723 68.7313 21.6723 67.2656V59.887C19.6784 61.5126 16.8923 62.3116 13.9 61.7523C10.5281 61.113 7.76961 58.5561 7.15355 55.4674C6.12769 50.3786 10.3796 45.9564 15.806 45.9564C18.0639 45.9564 20.1184 46.728 21.6723 48.0064V41.1697H35.8693C33.493 39.7315 31.9391 37.3069 31.9391 34.5103C31.9391 30.0882 35.8693 26.52 40.7373 26.52C45.6053 26.52 49.5355 30.0882 49.5355 34.5103C49.5355 37.3069 47.9816 39.7315 45.6053 41.1697H58.3336V48.0064C56.3397 46.3809 53.5536 45.5819 50.5613 46.1412C47.1895 46.7829 44.4309 49.3398 43.8149 52.4286V52.4286Z" fill="url(#paint1_linear)"/>
<defs>
<linearGradient id="paint0_linear" x1="72.9996" y1="38.5482" x2="47.113" y2="-5.09744" gradientUnits="userSpaceOnUse">
<stop stop-color="#2F80ED"/>
<stop offset="1" stop-color="#56CCF2"/>
</linearGradient>
<linearGradient id="paint1_linear" x1="58.3336" y1="69.7527" x2="13.9159" y2="20.3073" gradientUnits="userSpaceOnUse">
<stop stop-color="#2F80ED"/>
<stop offset="1" stop-color="#56CCF2"/>
</linearGradient>
</defs>
</svg>
