<svg width="80" height="80" viewBox="0 0 80 80" fill="none" xmlns="http://www.w3.org/2000/svg">
<rect width="80" height="80" fill="white"/>
<path d="M70.0003 43.2143C70.0003 42.3618 69.6616 41.5442 69.0588 40.9414C68.456 40.3386 67.6385 40 66.786 40H56.0717C55.2192 40 54.4017 40.3386 53.7989 40.9414C53.1961 41.5442 52.8574 42.3618 52.8574 43.2143V44.2857H70.0003V43.2143ZM62.5003 43.2143H60.3574C60.0733 43.2143 59.8007 43.1014 59.5998 42.9005C59.3989 42.6995 59.286 42.427 59.286 42.1429C59.286 41.8587 59.3989 41.5862 59.5998 41.3852C59.8007 41.1843 60.0733 41.0714 60.3574 41.0714H62.5003C62.7844 41.0714 63.057 41.1843 63.2579 41.3852C63.4588 41.5862 63.5717 41.8587 63.5717 42.1429C63.5717 42.427 63.4588 42.6995 63.2579 42.9005C63.057 43.1014 62.7844 43.2143 62.5003 43.2143Z" fill="black"/>
<path d="M70.0003 43.2143C70.0003 42.3618 69.6616 41.5442 69.0588 40.9414C68.456 40.3386 67.6385 40 66.786 40H56.0717C55.2192 40 54.4017 40.3386 53.7989 40.9414C53.1961 41.5442 52.8574 42.3618 52.8574 43.2143V44.2857H70.0003V43.2143ZM62.5003 43.2143H60.3574C60.0733 43.2143 59.8007 43.1014 59.5998 42.9005C59.3989 42.6995 59.286 42.427 59.286 42.1429C59.286 41.8587 59.3989 41.5862 59.5998 41.3852C59.8007 41.1843 60.0733 41.0714 60.3574 41.0714H62.5003C62.7844 41.0714 63.057 41.1843 63.2579 41.3852C63.4588 41.5862 63.5717 41.8587 63.5717 42.1429C63.5717 42.427 63.4588 42.6995 63.2579 42.9005C63.057 43.1014 62.7844 43.2143 62.5003 43.2143Z" fill="url(#paint0_linear)"/>
<path d="M70.0003 65.7142H52.8574V66.7857C52.8574 67.6381 53.1961 68.4557 53.7989 69.0585C54.4017 69.6613 55.2192 69.9999 56.0717 69.9999H66.786C67.6385 69.9999 68.456 69.6613 69.0588 69.0585C69.6616 68.4557 70.0003 67.6381 70.0003 66.7857V65.7142ZM62.5003 68.9285H60.3574C60.0733 68.9285 59.8007 68.8156 59.5998 68.6147C59.3989 68.4138 59.286 68.1413 59.286 67.8571C59.286 67.5729 59.3989 67.3004 59.5998 67.0995C59.8007 66.8985 60.0733 66.7857 60.3574 66.7857H62.5003C62.7844 66.7857 63.057 66.8985 63.2579 67.0995C63.4588 67.3004 63.5717 67.5729 63.5717 67.8571C63.5717 68.1413 63.4588 68.4138 63.2579 68.6147C63.057 68.8156 62.7844 68.9285 62.5003 68.9285Z" fill="black"/>
<path d="M70.0003 65.7142H52.8574V66.7857C52.8574 67.6381 53.1961 68.4557 53.7989 69.0585C54.4017 69.6613 55.2192 69.9999 56.0717 69.9999H66.786C67.6385 69.9999 68.456 69.6613 69.0588 69.0585C69.6616 68.4557 70.0003 67.6381 70.0003 66.7857V65.7142ZM62.5003 68.9285H60.3574C60.0733 68.9285 59.8007 68.8156 59.5998 68.6147C59.3989 68.4138 59.286 68.1413 59.286 67.8571C59.286 67.5729 59.3989 67.3004 59.5998 67.0995C59.8007 66.8985 60.0733 66.7857 60.3574 66.7857H62.5003C62.7844 66.7857 63.057 66.8985 63.2579 67.0995C63.4588 67.3004 63.5717 67.5729 63.5717 67.8571C63.5717 68.1413 63.4588 68.4138 63.2579 68.6147C63.057 68.8156 62.7844 68.9285 62.5003 68.9285Z" fill="url(#paint1_linear)"/>
<path d="M70.0003 46.4286H52.8574V63.5714H70.0003V46.4286ZM57.1431 59.2857H56.0717C55.7875 59.2857 55.515 59.1728 55.3141 58.9719C55.1132 58.771 55.0003 58.4985 55.0003 58.2143C55.0003 57.9301 55.1132 57.6576 55.3141 57.4567C55.515 57.2558 55.7875 57.1429 56.0717 57.1429H57.1431C57.4273 57.1429 57.6998 57.2558 57.9008 57.4567C58.1017 57.6576 58.2146 57.9301 58.2146 58.2143C58.2146 58.4985 58.1017 58.771 57.9008 58.9719C57.6998 59.1728 57.4273 59.2857 57.1431 59.2857ZM57.1431 55H56.0717C55.7875 55 55.515 54.8871 55.3141 54.6862C55.1132 54.4853 55.0003 54.2127 55.0003 53.9286C55.0003 53.6444 55.1132 53.3719 55.3141 53.171C55.515 52.97 55.7875 52.8572 56.0717 52.8572H57.1431C57.4273 52.8572 57.6998 52.97 57.9008 53.171C58.1017 53.3719 58.2146 53.6444 58.2146 53.9286C58.2146 54.2127 58.1017 54.4853 57.9008 54.6862C57.6998 54.8871 57.4273 55 57.1431 55ZM57.1431 50.7143H56.0717C55.7875 50.7143 55.515 50.6014 55.3141 50.4005C55.1132 50.1996 55.0003 49.927 55.0003 49.6429C55.0003 49.3587 55.1132 49.0862 55.3141 48.8853C55.515 48.6843 55.7875 48.5714 56.0717 48.5714H57.1431C57.4273 48.5714 57.6998 48.6843 57.9008 48.8853C58.1017 49.0862 58.2146 49.3587 58.2146 49.6429C58.2146 49.927 58.1017 50.1996 57.9008 50.4005C57.6998 50.6014 57.4273 50.7143 57.1431 50.7143ZM66.786 59.2857H60.3574C60.0733 59.2857 59.8007 59.1728 59.5998 58.9719C59.3989 58.771 59.286 58.4985 59.286 58.2143C59.286 57.9301 59.3989 57.6576 59.5998 57.4567C59.8007 57.2558 60.0733 57.1429 60.3574 57.1429H66.786C67.0702 57.1429 67.3427 57.2558 67.5436 57.4567C67.7445 57.6576 67.8574 57.9301 67.8574 58.2143C67.8574 58.4985 67.7445 58.771 67.5436 58.9719C67.3427 59.1728 67.0702 59.2857 66.786 59.2857ZM66.786 55H60.3574C60.0733 55 59.8007 54.8871 59.5998 54.6862C59.3989 54.4853 59.286 54.2127 59.286 53.9286C59.286 53.6444 59.3989 53.3719 59.5998 53.171C59.8007 52.97 60.0733 52.8572 60.3574 52.8572H66.786C67.0702 52.8572 67.3427 52.97 67.5436 53.171C67.7445 53.3719 67.8574 53.6444 67.8574 53.9286C67.8574 54.2127 67.7445 54.4853 67.5436 54.6862C67.3427 54.8871 67.0702 55 66.786 55ZM66.786 50.7143H60.3574C60.0733 50.7143 59.8007 50.6014 59.5998 50.4005C59.3989 50.1996 59.286 49.927 59.286 49.6429C59.286 49.3587 59.3989 49.0862 59.5998 48.8853C59.8007 48.6843 60.0733 48.5714 60.3574 48.5714H66.786C67.0702 48.5714 67.3427 48.6843 67.5436 48.8853C67.7445 49.0862 67.8574 49.3587 67.8574 49.6429C67.8574 49.927 67.7445 50.1996 67.5436 50.4005C67.3427 50.6014 67.0702 50.7143 66.786 50.7143Z" fill="black"/>
<path d="M70.0003 46.4286H52.8574V63.5714H70.0003V46.4286ZM57.1431 59.2857H56.0717C55.7875 59.2857 55.515 59.1728 55.3141 58.9719C55.1132 58.771 55.0003 58.4985 55.0003 58.2143C55.0003 57.9301 55.1132 57.6576 55.3141 57.4567C55.515 57.2558 55.7875 57.1429 56.0717 57.1429H57.1431C57.4273 57.1429 57.6998 57.2558 57.9008 57.4567C58.1017 57.6576 58.2146 57.9301 58.2146 58.2143C58.2146 58.4985 58.1017 58.771 57.9008 58.9719C57.6998 59.1728 57.4273 59.2857 57.1431 59.2857ZM57.1431 55H56.0717C55.7875 55 55.515 54.8871 55.3141 54.6862C55.1132 54.4853 55.0003 54.2127 55.0003 53.9286C55.0003 53.6444 55.1132 53.3719 55.3141 53.171C55.515 52.97 55.7875 52.8572 56.0717 52.8572H57.1431C57.4273 52.8572 57.6998 52.97 57.9008 53.171C58.1017 53.3719 58.2146 53.6444 58.2146 53.9286C58.2146 54.2127 58.1017 54.4853 57.9008 54.6862C57.6998 54.8871 57.4273 55 57.1431 55ZM57.1431 50.7143H56.0717C55.7875 50.7143 55.515 50.6014 55.3141 50.4005C55.1132 50.1996 55.0003 49.927 55.0003 49.6429C55.0003 49.3587 55.1132 49.0862 55.3141 48.8853C55.515 48.6843 55.7875 48.5714 56.0717 48.5714H57.1431C57.4273 48.5714 57.6998 48.6843 57.9008 48.8853C58.1017 49.0862 58.2146 49.3587 58.2146 49.6429C58.2146 49.927 58.1017 50.1996 57.9008 50.4005C57.6998 50.6014 57.4273 50.7143 57.1431 50.7143ZM66.786 59.2857H60.3574C60.0733 59.2857 59.8007 59.1728 59.5998 58.9719C59.3989 58.771 59.286 58.4985 59.286 58.2143C59.286 57.9301 59.3989 57.6576 59.5998 57.4567C59.8007 57.2558 60.0733 57.1429 60.3574 57.1429H66.786C67.0702 57.1429 67.3427 57.2558 67.5436 57.4567C67.7445 57.6576 67.8574 57.9301 67.8574 58.2143C67.8574 58.4985 67.7445 58.771 67.5436 58.9719C67.3427 59.1728 67.0702 59.2857 66.786 59.2857ZM66.786 55H60.3574C60.0733 55 59.8007 54.8871 59.5998 54.6862C59.3989 54.4853 59.286 54.2127 59.286 53.9286C59.286 53.6444 59.3989 53.3719 59.5998 53.171C59.8007 52.97 60.0733 52.8572 60.3574 52.8572H66.786C67.0702 52.8572 67.3427 52.97 67.5436 53.171C67.7445 53.3719 67.8574 53.6444 67.8574 53.9286C67.8574 54.2127 67.7445 54.4853 67.5436 54.6862C67.3427 54.8871 67.0702 55 66.786 55ZM66.786 50.7143H60.3574C60.0733 50.7143 59.8007 50.6014 59.5998 50.4005C59.3989 50.1996 59.286 49.927 59.286 49.6429C59.286 49.3587 59.3989 49.0862 59.5998 48.8853C59.8007 48.6843 60.0733 48.5714 60.3574 48.5714H66.786C67.0702 48.5714 67.3427 48.6843 67.5436 48.8853C67.7445 49.0862 67.8574 49.3587 67.8574 49.6429C67.8574 49.927 67.7445 50.1996 67.5436 50.4005C67.3427 50.6014 67.0702 50.7143 66.786 50.7143Z" fill="url(#paint2_linear)"/>
<path d="M16.4287 59.2858H40.0001V44.2858H16.4287V59.2858ZM26.0716 46.4286H33.5716C33.8557 46.4286 34.1283 46.5415 34.3292 46.7424C34.5301 46.9434 34.643 47.2159 34.643 47.5001C34.643 47.7842 34.5301 48.0567 34.3292 48.2577C34.1283 48.4586 33.8557 48.5715 33.5716 48.5715H26.0716C25.7874 48.5715 25.5149 48.4586 25.314 48.2577C25.113 48.0567 25.0001 47.7842 25.0001 47.5001C25.0001 47.2159 25.113 46.9434 25.314 46.7424C25.5149 46.5415 25.7874 46.4286 26.0716 46.4286ZM26.0716 50.7143H33.5716C33.8557 50.7143 34.1283 50.8272 34.3292 51.0282C34.5301 51.2291 34.643 51.5016 34.643 51.7858C34.643 52.0699 34.5301 52.3424 34.3292 52.5434C34.1283 52.7443 33.8557 52.8572 33.5716 52.8572H26.0716C25.7874 52.8572 25.5149 52.7443 25.314 52.5434C25.113 52.3424 25.0001 52.0699 25.0001 51.7858C25.0001 51.5016 25.113 51.2291 25.314 51.0282C25.5149 50.8272 25.7874 50.7143 26.0716 50.7143ZM26.0716 55.0001H33.5716C33.8557 55.0001 34.1283 55.1129 34.3292 55.3139C34.5301 55.5148 34.643 55.7873 34.643 56.0715C34.643 56.3556 34.5301 56.6282 34.3292 56.8291C34.1283 57.03 33.8557 57.1429 33.5716 57.1429H26.0716C25.7874 57.1429 25.5149 57.03 25.314 56.8291C25.113 56.6282 25.0001 56.3556 25.0001 56.0715C25.0001 55.7873 25.113 55.5148 25.314 55.3139C25.5149 55.1129 25.7874 55.0001 26.0716 55.0001ZM21.7859 46.4286H22.8573C23.1414 46.4286 23.414 46.5415 23.6149 46.7424C23.8158 46.9434 23.9287 47.2159 23.9287 47.5001C23.9287 47.7842 23.8158 48.0567 23.6149 48.2577C23.414 48.4586 23.1414 48.5715 22.8573 48.5715H21.7859C21.5017 48.5715 21.2292 48.4586 21.0282 48.2577C20.8273 48.0567 20.7144 47.7842 20.7144 47.5001C20.7144 47.2159 20.8273 46.9434 21.0282 46.7424C21.2292 46.5415 21.5017 46.4286 21.7859 46.4286V46.4286ZM21.7859 50.7143H22.8573C23.1414 50.7143 23.414 50.8272 23.6149 51.0282C23.8158 51.2291 23.9287 51.5016 23.9287 51.7858C23.9287 52.0699 23.8158 52.3424 23.6149 52.5434C23.414 52.7443 23.1414 52.8572 22.8573 52.8572H21.7859C21.5017 52.8572 21.2292 52.7443 21.0282 52.5434C20.8273 52.3424 20.7144 52.0699 20.7144 51.7858C20.7144 51.5016 20.8273 51.2291 21.0282 51.0282C21.2292 50.8272 21.5017 50.7143 21.7859 50.7143V50.7143ZM21.7859 55.0001H22.8573C23.1414 55.0001 23.414 55.1129 23.6149 55.3139C23.8158 55.5148 23.9287 55.7873 23.9287 56.0715C23.9287 56.3556 23.8158 56.6282 23.6149 56.8291C23.414 57.03 23.1414 57.1429 22.8573 57.1429H21.7859C21.5017 57.1429 21.2292 57.03 21.0282 56.8291C20.8273 56.6282 20.7144 56.3556 20.7144 56.0715C20.7144 55.7873 20.8273 55.5148 21.0282 55.3139C21.2292 55.1129 21.5017 55.0001 21.7859 55.0001V55.0001Z" fill="black"/>
<path d="M16.4287 59.2858H40.0001V44.2858H16.4287V59.2858ZM26.0716 46.4286H33.5716C33.8557 46.4286 34.1283 46.5415 34.3292 46.7424C34.5301 46.9434 34.643 47.2159 34.643 47.5001C34.643 47.7842 34.5301 48.0567 34.3292 48.2577C34.1283 48.4586 33.8557 48.5715 33.5716 48.5715H26.0716C25.7874 48.5715 25.5149 48.4586 25.314 48.2577C25.113 48.0567 25.0001 47.7842 25.0001 47.5001C25.0001 47.2159 25.113 46.9434 25.314 46.7424C25.5149 46.5415 25.7874 46.4286 26.0716 46.4286ZM26.0716 50.7143H33.5716C33.8557 50.7143 34.1283 50.8272 34.3292 51.0282C34.5301 51.2291 34.643 51.5016 34.643 51.7858C34.643 52.0699 34.5301 52.3424 34.3292 52.5434C34.1283 52.7443 33.8557 52.8572 33.5716 52.8572H26.0716C25.7874 52.8572 25.5149 52.7443 25.314 52.5434C25.113 52.3424 25.0001 52.0699 25.0001 51.7858C25.0001 51.5016 25.113 51.2291 25.314 51.0282C25.5149 50.8272 25.7874 50.7143 26.0716 50.7143ZM26.0716 55.0001H33.5716C33.8557 55.0001 34.1283 55.1129 34.3292 55.3139C34.5301 55.5148 34.643 55.7873 34.643 56.0715C34.643 56.3556 34.5301 56.6282 34.3292 56.8291C34.1283 57.03 33.8557 57.1429 33.5716 57.1429H26.0716C25.7874 57.1429 25.5149 57.03 25.314 56.8291C25.113 56.6282 25.0001 56.3556 25.0001 56.0715C25.0001 55.7873 25.113 55.5148 25.314 55.3139C25.5149 55.1129 25.7874 55.0001 26.0716 55.0001ZM21.7859 46.4286H22.8573C23.1414 46.4286 23.414 46.5415 23.6149 46.7424C23.8158 46.9434 23.9287 47.2159 23.9287 47.5001C23.9287 47.7842 23.8158 48.0567 23.6149 48.2577C23.414 48.4586 23.1414 48.5715 22.8573 48.5715H21.7859C21.5017 48.5715 21.2292 48.4586 21.0282 48.2577C20.8273 48.0567 20.7144 47.7842 20.7144 47.5001C20.7144 47.2159 20.8273 46.9434 21.0282 46.7424C21.2292 46.5415 21.5017 46.4286 21.7859 46.4286V46.4286ZM21.7859 50.7143H22.8573C23.1414 50.7143 23.414 50.8272 23.6149 51.0282C23.8158 51.2291 23.9287 51.5016 23.9287 51.7858C23.9287 52.0699 23.8158 52.3424 23.6149 52.5434C23.414 52.7443 23.1414 52.8572 22.8573 52.8572H21.7859C21.5017 52.8572 21.2292 52.7443 21.0282 52.5434C20.8273 52.3424 20.7144 52.0699 20.7144 51.7858C20.7144 51.5016 20.8273 51.2291 21.0282 51.0282C21.2292 50.8272 21.5017 50.7143 21.7859 50.7143V50.7143ZM21.7859 55.0001H22.8573C23.1414 55.0001 23.414 55.1129 23.6149 55.3139C23.8158 55.5148 23.9287 55.7873 23.9287 56.0715C23.9287 56.3556 23.8158 56.6282 23.6149 56.8291C23.414 57.03 23.1414 57.1429 22.8573 57.1429H21.7859C21.5017 57.1429 21.2292 57.03 21.0282 56.8291C20.8273 56.6282 20.7144 56.3556 20.7144 56.0715C20.7144 55.7873 20.8273 55.5148 21.0282 55.3139C21.2292 55.1129 21.5017 55.0001 21.7859 55.0001V55.0001Z" fill="url(#paint3_linear)"/>
<path d="M46.4286 65.7142H33.5714C33.5714 66.5667 33.2328 67.3843 32.63 67.9871C32.0272 68.5899 31.2096 68.9285 30.3571 68.9285H26.0714C25.2189 68.9285 24.4014 68.5899 23.7986 67.9871C23.1958 67.3843 22.8571 66.5667 22.8571 65.7142H10V66.7857C10 67.6381 10.3386 68.4557 10.9414 69.0585C11.5442 69.6613 12.3618 69.9999 13.2143 69.9999H43.2143C44.0668 69.9999 44.8843 69.6613 45.4871 69.0585C46.0899 68.4557 46.4286 67.6381 46.4286 66.7857V65.7142Z" fill="black"/>
<path d="M46.4286 65.7142H33.5714C33.5714 66.5667 33.2328 67.3843 32.63 67.9871C32.0272 68.5899 31.2096 68.9285 30.3571 68.9285H26.0714C25.2189 68.9285 24.4014 68.5899 23.7986 67.9871C23.1958 67.3843 22.8571 66.5667 22.8571 65.7142H10V66.7857C10 67.6381 10.3386 68.4557 10.9414 69.0585C11.5442 69.6613 12.3618 69.9999 13.2143 69.9999H43.2143C44.0668 69.9999 44.8843 69.6613 45.4871 69.0585C46.0899 68.4557 46.4286 67.6381 46.4286 66.7857V65.7142Z" fill="url(#paint4_linear)"/>
<path d="M26.0714 66.7857H30.3571C30.6413 66.7857 30.9138 66.6728 31.1148 66.4718C31.3157 66.2709 31.4286 65.9984 31.4286 65.7142H25C25 65.9984 25.1129 66.2709 25.3138 66.4718C25.5147 66.6728 25.7873 66.7857 26.0714 66.7857Z" fill="black"/>
<path d="M26.0714 66.7857H30.3571C30.6413 66.7857 30.9138 66.6728 31.1148 66.4718C31.3157 66.2709 31.4286 65.9984 31.4286 65.7142H25C25 65.9984 25.1129 66.2709 25.3138 66.4718C25.5147 66.6728 25.7873 66.7857 26.0714 66.7857Z" fill="url(#paint5_linear)"/>
<path d="M44.2854 41.0714C44.2854 40.7873 44.1726 40.5147 43.9716 40.3138C43.7707 40.1129 43.4982 40 43.214 40H13.214C12.9298 40 12.6573 40.1129 12.4564 40.3138C12.2555 40.5147 12.1426 40.7873 12.1426 41.0714V63.5714H44.2854V41.0714ZM42.1426 60.3571C42.1426 60.6413 42.0297 60.9138 41.8288 61.1148C41.6278 61.3157 41.3553 61.4286 41.0711 61.4286H15.3569C15.0727 61.4286 14.8002 61.3157 14.5992 61.1148C14.3983 60.9138 14.2854 60.6413 14.2854 60.3571V43.2143C14.2854 42.9301 14.3983 42.6576 14.5992 42.4567C14.8002 42.2557 15.0727 42.1429 15.3569 42.1429H41.0711C41.3553 42.1429 41.6278 42.2557 41.8288 42.4567C42.0297 42.6576 42.1426 42.9301 42.1426 43.2143V60.3571Z" fill="black"/>
<path d="M44.2854 41.0714C44.2854 40.7873 44.1726 40.5147 43.9716 40.3138C43.7707 40.1129 43.4982 40 43.214 40H13.214C12.9298 40 12.6573 40.1129 12.4564 40.3138C12.2555 40.5147 12.1426 40.7873 12.1426 41.0714V63.5714H44.2854V41.0714ZM42.1426 60.3571C42.1426 60.6413 42.0297 60.9138 41.8288 61.1148C41.6278 61.3157 41.3553 61.4286 41.0711 61.4286H15.3569C15.0727 61.4286 14.8002 61.3157 14.5992 61.1148C14.3983 60.9138 14.2854 60.6413 14.2854 60.3571V43.2143C14.2854 42.9301 14.3983 42.6576 14.5992 42.4567C14.8002 42.2557 15.0727 42.1429 15.3569 42.1429H41.0711C41.3553 42.1429 41.6278 42.2557 41.8288 42.4567C42.0297 42.6576 42.1426 42.9301 42.1426 43.2143V60.3571Z" fill="url(#paint6_linear)"/>
<path d="M59.2859 20.7142H53.9287V22.8571H59.2859C59.57 22.8571 59.8425 22.97 60.0435 23.1709C60.2444 23.3718 60.3573 23.6444 60.3573 23.9285V37.8571H62.5001V23.9285C62.5001 23.076 62.1615 22.2585 61.5587 21.6557C60.9559 21.0529 60.1383 20.7142 59.2859 20.7142V20.7142Z" fill="black"/>
<path d="M59.2859 20.7142H53.9287V22.8571H59.2859C59.57 22.8571 59.8425 22.97 60.0435 23.1709C60.2444 23.3718 60.3573 23.6444 60.3573 23.9285V37.8571H62.5001V23.9285C62.5001 23.076 62.1615 22.2585 61.5587 21.6557C60.9559 21.0529 60.1383 20.7142 59.2859 20.7142V20.7142Z" fill="url(#paint7_linear)"/>
<path d="M26.0716 20.7142H19.643C18.7905 20.7142 17.9729 21.0529 17.3702 21.6557C16.7674 22.2585 16.4287 23.076 16.4287 23.9285V37.8571H18.5716V23.9285C18.5716 23.6444 18.6845 23.3718 18.8854 23.1709C19.0863 22.97 19.3588 22.8571 19.643 22.8571H26.0716V20.7142Z" fill="black"/>
<path d="M26.0716 20.7142H19.643C18.7905 20.7142 17.9729 21.0529 17.3702 21.6557C16.7674 22.2585 16.4287 23.076 16.4287 23.9285V37.8571H18.5716V23.9285C18.5716 23.6444 18.6845 23.3718 18.8854 23.1709C19.0863 22.97 19.3588 22.8571 19.643 22.8571H26.0716V20.7142Z" fill="url(#paint8_linear)"/>
<path d="M44.185 20.0533C44.1039 19.8574 44.0827 19.6419 44.1241 19.4341C44.1655 19.2262 44.2676 19.0352 44.4175 18.8854L46.06 17.2429L44.5429 15.7258L42.9004 17.3683C42.7505 17.5181 42.5596 17.6201 42.3518 17.6614C42.144 17.7027 41.9286 17.6815 41.7329 17.6004C41.5371 17.5193 41.3698 17.3821 41.2521 17.2059C41.1343 17.0297 41.0715 16.8226 41.0714 16.6108V14.2858H38.9286V16.6108C38.9285 16.8226 38.8657 17.0297 38.7479 17.2059C38.6302 17.3821 38.4629 17.5193 38.2671 17.6004C38.0714 17.6815 37.856 17.7027 37.6482 17.6614C37.4404 17.6201 37.2495 17.5181 37.0996 17.3683L35.4571 15.7258L33.94 17.2429L35.5825 18.8854C35.7323 19.0353 35.8343 19.2261 35.8756 19.4339C35.9169 19.6418 35.8957 19.8571 35.8147 20.0529C35.7336 20.2486 35.5963 20.416 35.4201 20.5337C35.244 20.6514 35.0369 20.7143 34.825 20.7143H32.5V22.8572H34.825C35.0369 22.8572 35.244 22.9201 35.4201 23.0378C35.5963 23.1556 35.7336 23.3229 35.8147 23.5186C35.8957 23.7144 35.9169 23.9298 35.8756 24.1376C35.8343 24.3454 35.7323 24.5363 35.5825 24.6861L33.94 26.3286L35.4571 27.8458L37.0996 26.2033C37.2495 26.0535 37.4404 25.9515 37.6482 25.9101C37.856 25.8688 38.0714 25.89 38.2671 25.9711C38.4629 26.0522 38.6302 26.1895 38.7479 26.3656C38.8657 26.5418 38.9285 26.7489 38.9286 26.9608V29.2858H41.0714V26.9608C41.0715 26.7489 41.1343 26.5418 41.2521 26.3656C41.3698 26.1895 41.5371 26.0522 41.7329 25.9711C41.9286 25.89 42.144 25.8688 42.3518 25.9101C42.5596 25.9515 42.7505 26.0535 42.9004 26.2033L44.5429 27.8458L46.06 26.3286L44.4175 24.6861C44.2677 24.5363 44.1657 24.3454 44.1244 24.1376C44.0831 23.9298 44.1043 23.7144 44.1853 23.5186C44.2664 23.3229 44.4037 23.1556 44.5799 23.0378C44.756 22.9201 44.9631 22.8572 45.175 22.8572H47.5V20.7143H45.175C44.9631 20.7144 44.756 20.6516 44.5797 20.5339C44.4035 20.4163 44.2662 20.249 44.185 20.0533V20.0533ZM40 25.0001C39.3643 25.0001 38.7428 24.8115 38.2142 24.4583C37.6857 24.1052 37.2737 23.6032 37.0304 23.0158C36.7871 22.4285 36.7235 21.7822 36.8475 21.1587C36.9715 20.5352 37.2776 19.9624 37.7272 19.5129C38.1767 19.0634 38.7494 18.7573 39.3729 18.6332C39.9964 18.5092 40.6427 18.5729 41.2301 18.8162C41.8174 19.0594 42.3194 19.4714 42.6726 20C43.0258 20.5286 43.2143 21.15 43.2143 21.7858C43.2143 22.6382 42.8756 23.4558 42.2728 24.0586C41.67 24.6614 40.8525 25.0001 40 25.0001Z" fill="black"/>
<path d="M44.185 20.0533C44.1039 19.8574 44.0827 19.6419 44.1241 19.4341C44.1655 19.2262 44.2676 19.0352 44.4175 18.8854L46.06 17.2429L44.5429 15.7258L42.9004 17.3683C42.7505 17.5181 42.5596 17.6201 42.3518 17.6614C42.144 17.7027 41.9286 17.6815 41.7329 17.6004C41.5371 17.5193 41.3698 17.3821 41.2521 17.2059C41.1343 17.0297 41.0715 16.8226 41.0714 16.6108V14.2858H38.9286V16.6108C38.9285 16.8226 38.8657 17.0297 38.7479 17.2059C38.6302 17.3821 38.4629 17.5193 38.2671 17.6004C38.0714 17.6815 37.856 17.7027 37.6482 17.6614C37.4404 17.6201 37.2495 17.5181 37.0996 17.3683L35.4571 15.7258L33.94 17.2429L35.5825 18.8854C35.7323 19.0353 35.8343 19.2261 35.8756 19.4339C35.9169 19.6418 35.8957 19.8571 35.8147 20.0529C35.7336 20.2486 35.5963 20.416 35.4201 20.5337C35.244 20.6514 35.0369 20.7143 34.825 20.7143H32.5V22.8572H34.825C35.0369 22.8572 35.244 22.9201 35.4201 23.0378C35.5963 23.1556 35.7336 23.3229 35.8147 23.5186C35.8957 23.7144 35.9169 23.9298 35.8756 24.1376C35.8343 24.3454 35.7323 24.5363 35.5825 24.6861L33.94 26.3286L35.4571 27.8458L37.0996 26.2033C37.2495 26.0535 37.4404 25.9515 37.6482 25.9101C37.856 25.8688 38.0714 25.89 38.2671 25.9711C38.4629 26.0522 38.6302 26.1895 38.7479 26.3656C38.8657 26.5418 38.9285 26.7489 38.9286 26.9608V29.2858H41.0714V26.9608C41.0715 26.7489 41.1343 26.5418 41.2521 26.3656C41.3698 26.1895 41.5371 26.0522 41.7329 25.9711C41.9286 25.89 42.144 25.8688 42.3518 25.9101C42.5596 25.9515 42.7505 26.0535 42.9004 26.2033L44.5429 27.8458L46.06 26.3286L44.4175 24.6861C44.2677 24.5363 44.1657 24.3454 44.1244 24.1376C44.0831 23.9298 44.1043 23.7144 44.1853 23.5186C44.2664 23.3229 44.4037 23.1556 44.5799 23.0378C44.756 22.9201 44.9631 22.8572 45.175 22.8572H47.5V20.7143H45.175C44.9631 20.7144 44.756 20.6516 44.5797 20.5339C44.4035 20.4163 44.2662 20.249 44.185 20.0533V20.0533ZM40 25.0001C39.3643 25.0001 38.7428 24.8115 38.2142 24.4583C37.6857 24.1052 37.2737 23.6032 37.0304 23.0158C36.7871 22.4285 36.7235 21.7822 36.8475 21.1587C36.9715 20.5352 37.2776 19.9624 37.7272 19.5129C38.1767 19.0634 38.7494 18.7573 39.3729 18.6332C39.9964 18.5092 40.6427 18.5729 41.2301 18.8162C41.8174 19.0594 42.3194 19.4714 42.6726 20C43.0258 20.5286 43.2143 21.15 43.2143 21.7858C43.2143 22.6382 42.8756 23.4558 42.2728 24.0586C41.67 24.6614 40.8525 25.0001 40 25.0001Z" fill="url(#paint9_linear)"/>
<path d="M40.0001 22.8571C40.5919 22.8571 41.0716 22.3774 41.0716 21.7857C41.0716 21.1939 40.5919 20.7142 40.0001 20.7142C39.4084 20.7142 38.9287 21.1939 38.9287 21.7857C38.9287 22.3774 39.4084 22.8571 40.0001 22.8571Z" fill="black"/>
<path d="M40.0001 22.8571C40.5919 22.8571 41.0716 22.3774 41.0716 21.7857C41.0716 21.1939 40.5919 20.7142 40.0001 20.7142C39.4084 20.7142 38.9287 21.1939 38.9287 21.7857C38.9287 22.3774 39.4084 22.8571 40.0001 22.8571Z" fill="url(#paint10_linear)"/>
<path d="M39.9996 10C37.6686 10 35.3899 10.6912 33.4518 11.9863C31.5136 13.2813 30.003 15.122 29.111 17.2755C28.219 19.4291 27.9856 21.7988 28.4403 24.085C28.8951 26.3712 30.0176 28.4712 31.6658 30.1195C33.3141 31.7677 35.4141 32.8902 37.7003 33.345C39.9865 33.7997 42.3562 33.5663 44.5098 32.6743C46.6633 31.7823 48.504 30.2717 49.799 28.3335C51.0941 26.3954 51.7853 24.1167 51.7853 21.7857C51.7816 18.6611 50.5387 15.6655 48.3293 13.456C46.1198 11.2466 43.1242 10.0037 39.9996 10V10ZM48.571 25H47.761L48.3321 25.5711C48.5329 25.772 48.6458 26.0445 48.6458 26.3286C48.6458 26.6127 48.5329 26.8851 48.3321 27.0861L45.2999 30.1182C45.099 30.3191 44.8265 30.4319 44.5424 30.4319C44.2583 30.4319 43.9859 30.3191 43.7849 30.1182L43.2139 29.5471V30.3571C43.2139 30.6413 43.101 30.9138 42.9001 31.1148C42.6991 31.3157 42.4266 31.4286 42.1424 31.4286H37.8567C37.5726 31.4286 37.3 31.3157 37.0991 31.1148C36.8982 30.9138 36.7853 30.6413 36.7853 30.3571V29.5471L36.2142 30.1182C36.0133 30.3191 35.7408 30.4319 35.4567 30.4319C35.1726 30.4319 34.9002 30.3191 34.6992 30.1182L31.6671 27.0861C31.4662 26.8851 31.3534 26.6127 31.3534 26.3286C31.3534 26.0445 31.4662 25.772 31.6671 25.5711L32.2382 25H31.4282C31.144 25 30.8715 24.8871 30.6705 24.6862C30.4696 24.4853 30.3567 24.2127 30.3567 23.9286V19.6429C30.3567 19.3587 30.4696 19.0862 30.6705 18.8852C30.8715 18.6843 31.144 18.5714 31.4282 18.5714H32.2382L31.6671 18.0004C31.4662 17.7994 31.3534 17.527 31.3534 17.2429C31.3534 16.9588 31.4662 16.6863 31.6671 16.4854L34.6992 13.4532C34.9002 13.2524 35.1726 13.1395 35.4567 13.1395C35.7408 13.1395 36.0133 13.2524 36.2142 13.4532L36.7853 14.0243V13.2143C36.7853 12.9301 36.8982 12.6576 37.0991 12.4567C37.3 12.2557 37.5726 12.1429 37.8567 12.1429H42.1424C42.4266 12.1429 42.6991 12.2557 42.9001 12.4567C43.101 12.6576 43.2139 12.9301 43.2139 13.2143V14.0243L43.7849 13.4532C43.9859 13.2524 44.2583 13.1395 44.5424 13.1395C44.8265 13.1395 45.099 13.2524 45.2999 13.4532L48.3321 16.4854C48.5329 16.6863 48.6458 16.9588 48.6458 17.2429C48.6458 17.527 48.5329 17.7994 48.3321 18.0004L47.761 18.5714H48.571C48.8552 18.5714 49.1277 18.6843 49.3286 18.8852C49.5296 19.0862 49.6424 19.3587 49.6424 19.6429V23.9286C49.6424 24.2127 49.5296 24.4853 49.3286 24.6862C49.1277 24.8871 48.8552 25 48.571 25Z" fill="black"/>
<path d="M39.9996 10C37.6686 10 35.3899 10.6912 33.4518 11.9863C31.5136 13.2813 30.003 15.122 29.111 17.2755C28.219 19.4291 27.9856 21.7988 28.4403 24.085C28.8951 26.3712 30.0176 28.4712 31.6658 30.1195C33.3141 31.7677 35.4141 32.8902 37.7003 33.345C39.9865 33.7997 42.3562 33.5663 44.5098 32.6743C46.6633 31.7823 48.504 30.2717 49.799 28.3335C51.0941 26.3954 51.7853 24.1167 51.7853 21.7857C51.7816 18.6611 50.5387 15.6655 48.3293 13.456C46.1198 11.2466 43.1242 10.0037 39.9996 10V10ZM48.571 25H47.761L48.3321 25.5711C48.5329 25.772 48.6458 26.0445 48.6458 26.3286C48.6458 26.6127 48.5329 26.8851 48.3321 27.0861L45.2999 30.1182C45.099 30.3191 44.8265 30.4319 44.5424 30.4319C44.2583 30.4319 43.9859 30.3191 43.7849 30.1182L43.2139 29.5471V30.3571C43.2139 30.6413 43.101 30.9138 42.9001 31.1148C42.6991 31.3157 42.4266 31.4286 42.1424 31.4286H37.8567C37.5726 31.4286 37.3 31.3157 37.0991 31.1148C36.8982 30.9138 36.7853 30.6413 36.7853 30.3571V29.5471L36.2142 30.1182C36.0133 30.3191 35.7408 30.4319 35.4567 30.4319C35.1726 30.4319 34.9002 30.3191 34.6992 30.1182L31.6671 27.0861C31.4662 26.8851 31.3534 26.6127 31.3534 26.3286C31.3534 26.0445 31.4662 25.772 31.6671 25.5711L32.2382 25H31.4282C31.144 25 30.8715 24.8871 30.6705 24.6862C30.4696 24.4853 30.3567 24.2127 30.3567 23.9286V19.6429C30.3567 19.3587 30.4696 19.0862 30.6705 18.8852C30.8715 18.6843 31.144 18.5714 31.4282 18.5714H32.2382L31.6671 18.0004C31.4662 17.7994 31.3534 17.527 31.3534 17.2429C31.3534 16.9588 31.4662 16.6863 31.6671 16.4854L34.6992 13.4532C34.9002 13.2524 35.1726 13.1395 35.4567 13.1395C35.7408 13.1395 36.0133 13.2524 36.2142 13.4532L36.7853 14.0243V13.2143C36.7853 12.9301 36.8982 12.6576 37.0991 12.4567C37.3 12.2557 37.5726 12.1429 37.8567 12.1429H42.1424C42.4266 12.1429 42.6991 12.2557 42.9001 12.4567C43.101 12.6576 43.2139 12.9301 43.2139 13.2143V14.0243L43.7849 13.4532C43.9859 13.2524 44.2583 13.1395 44.5424 13.1395C44.8265 13.1395 45.099 13.2524 45.2999 13.4532L48.3321 16.4854C48.5329 16.6863 48.6458 16.9588 48.6458 17.2429C48.6458 17.527 48.5329 17.7994 48.3321 18.0004L47.761 18.5714H48.571C48.8552 18.5714 49.1277 18.6843 49.3286 18.8852C49.5296 19.0862 49.6424 19.3587 49.6424 19.6429V23.9286C49.6424 24.2127 49.5296 24.4853 49.3286 24.6862C49.1277 24.8871 48.8552 25 48.571 25Z" fill="url(#paint11_linear)"/>
<defs>
<linearGradient id="paint0_linear" x1="70.0003" y1="44.2682" x2="67.812" y2="36.0285" gradientUnits="userSpaceOnUse">
<stop stop-color="#2F80ED"/>
<stop offset="1" stop-color="#56CCF2"/>
</linearGradient>
<linearGradient id="paint1_linear" x1="70.0003" y1="69.9825" x2="67.812" y2="61.7427" gradientUnits="userSpaceOnUse">
<stop stop-color="#2F80ED"/>
<stop offset="1" stop-color="#56CCF2"/>
</linearGradient>
<linearGradient id="paint2_linear" x1="70.0003" y1="63.5015" x2="52.3906" y2="46.9245" gradientUnits="userSpaceOnUse">
<stop stop-color="#2F80ED"/>
<stop offset="1" stop-color="#56CCF2"/>
</linearGradient>
<linearGradient id="paint3_linear" x1="40.0001" y1="59.2245" x2="25.6757" y2="38.0347" gradientUnits="userSpaceOnUse">
<stop stop-color="#2F80ED"/>
<stop offset="1" stop-color="#56CCF2"/>
</linearGradient>
<linearGradient id="paint4_linear" x1="46.4286" y1="69.9825" x2="45.3431" y2="61.2972" gradientUnits="userSpaceOnUse">
<stop stop-color="#2F80ED"/>
<stop offset="1" stop-color="#56CCF2"/>
</linearGradient>
<linearGradient id="paint5_linear" x1="31.4286" y1="66.7813" x2="31.05" y2="64.6431" gradientUnits="userSpaceOnUse">
<stop stop-color="#2F80ED"/>
<stop offset="1" stop-color="#56CCF2"/>
</linearGradient>
<linearGradient id="paint6_linear" x1="44.2854" y1="63.4752" x2="20.7651" y2="33.2829" gradientUnits="userSpaceOnUse">
<stop stop-color="#2F80ED"/>
<stop offset="1" stop-color="#56CCF2"/>
</linearGradient>
<linearGradient id="paint7_linear" x1="62.5001" y1="37.7871" x2="48.9048" y2="31.3881" gradientUnits="userSpaceOnUse">
<stop stop-color="#2F80ED"/>
<stop offset="1" stop-color="#56CCF2"/>
</linearGradient>
<linearGradient id="paint8_linear" x1="26.0716" y1="37.7871" x2="11.4797" y2="30.0605" gradientUnits="userSpaceOnUse">
<stop stop-color="#2F80ED"/>
<stop offset="1" stop-color="#56CCF2"/>
</linearGradient>
<linearGradient id="paint9_linear" x1="47.5" y1="29.2245" x2="32.0915" y2="14.7197" gradientUnits="userSpaceOnUse">
<stop stop-color="#2F80ED"/>
<stop offset="1" stop-color="#56CCF2"/>
</linearGradient>
<linearGradient id="paint10_linear" x1="41.0716" y1="22.8483" x2="38.8704" y2="20.7762" gradientUnits="userSpaceOnUse">
<stop stop-color="#2F80ED"/>
<stop offset="1" stop-color="#56CCF2"/>
</linearGradient>
<linearGradient id="paint11_linear" x1="51.7853" y1="33.4752" x2="27.572" y2="10.6818" gradientUnits="userSpaceOnUse">
<stop stop-color="#2F80ED"/>
<stop offset="1" stop-color="#56CCF2"/>
</linearGradient>
</defs>
</svg>
