<svg width="80" height="80" viewBox="0 0 80 80" fill="none" xmlns="http://www.w3.org/2000/svg">
<rect width="80" height="80" fill="white"/>
<path d="M55.584 24.416H52.0098V27.9902H48.4355V24.416H44.8613V35.1387H55.584V24.416Z" fill="white"/>
<path d="M50.2227 10C39.3831 10 30.5645 18.9378 30.5645 29.7773C30.5645 33.1805 31.4842 36.5523 33.2328 39.5681L32.0321 47.9679L40.4319 46.7672C43.4477 48.5158 46.8195 49.4355 50.2227 49.4355C61.0622 49.4355 70 40.6169 70 29.7773C70 18.9378 61.0622 10 50.2227 10ZM59.1582 38.7129H41.2871V20.8418H59.1582V38.7129Z" fill="white"/>
<path d="M43.8142 71C45.7845 71 47.3633 69.3961 47.3633 67.4258V60.2773L40.24 56.7031L34.8542 60.2931L34.1963 60.2111C28.5802 59.5183 20.4819 51.42 19.789 45.8038L19.707 45.1459L23.2969 39.76L19.7227 32.6367H12.5742C10.6039 32.6367 9 34.2155 9 36.1858C9 53.3466 26.6534 71 43.8142 71Z" fill="white"/>
</svg>
