<svg width="40" height="40" viewBox="0 0 40 40" fill="none" xmlns="http://www.w3.org/2000/svg">
<circle cx="20" cy="20" r="20" fill="#0091EA"/>
<path d="M20.3095 12.8898C22.6346 12.8898 22.9096 12.8981 23.8264 12.9398C24.6764 12.9814 25.1348 13.1231 25.4432 13.2398C25.8515 13.3981 26.1349 13.5898 26.4432 13.8898C26.7516 14.1982 26.9349 14.4816 27.0933 14.8899C27.2099 15.1983 27.3516 15.6566 27.3933 16.5067C27.435 17.4234 27.4433 17.6984 27.4433 20.0236C27.4433 22.3488 27.435 22.6238 27.3933 23.5405C27.3516 24.3906 27.2099 24.8489 27.0933 25.1573C26.9349 25.5657 26.7432 25.849 26.4432 26.1574C26.1432 26.4574 25.8515 26.6491 25.4432 26.8074C25.1348 26.9241 24.6764 27.0658 23.8264 27.1074C22.9096 27.1491 22.6346 27.1574 20.3095 27.1574C17.9843 27.1574 17.7093 27.1491 16.7925 27.1074C15.9425 27.0658 15.4841 26.9241 15.1758 26.8074C14.7674 26.6491 14.4841 26.4574 14.1757 26.1574C13.8673 25.849 13.684 25.5657 13.5257 25.1573C13.409 24.8489 13.2673 24.3906 13.2256 23.5405C13.184 22.6238 13.1756 22.3488 13.1756 20.0236C13.1756 17.6984 13.184 17.4234 13.2256 16.5067C13.2756 15.6566 13.4173 15.1983 13.534 14.8899C13.6923 14.4816 13.884 14.1982 14.184 13.8898C14.4924 13.5815 14.7757 13.3981 15.1841 13.2398C15.4925 13.1231 15.9508 12.9814 16.8009 12.9398C17.7176 12.8981 17.9926 12.8898 20.3095 12.8898ZM20.3095 11.323C17.951 11.323 17.6593 11.3313 16.7259 11.373C15.8008 11.4147 15.1674 11.5647 14.6174 11.7814C14.0424 12.0064 13.559 12.2981 13.0756 12.7814C12.5923 13.2648 12.2922 13.7482 12.0756 14.3232C11.8589 14.8732 11.7089 15.5066 11.6672 16.4317C11.6255 17.3651 11.6172 17.6568 11.6172 20.0153C11.6172 22.3738 11.6255 22.6738 11.6672 23.5989C11.7089 24.5239 11.8589 25.1573 12.0672 25.7073C12.2922 26.2824 12.5839 26.7657 13.0673 27.2491C13.5507 27.7325 14.034 28.0325 14.6091 28.2492C15.1591 28.4659 15.7925 28.6075 16.7175 28.6492C17.6426 28.6909 17.9426 28.6992 20.3011 28.6992C22.6596 28.6992 22.9596 28.6909 23.8847 28.6492C24.8098 28.6075 25.4432 28.4575 25.9932 28.2492C26.5682 28.0242 27.0516 27.7325 27.535 27.2491C28.0183 26.7657 28.3184 26.2824 28.535 25.7073C28.7517 25.1573 28.8934 24.5239 28.9434 23.5989C28.9851 22.6738 28.9934 22.3738 28.9934 20.0153C28.9934 17.6568 28.9851 17.3568 28.9434 16.4317C28.9017 15.5066 28.7517 14.8732 28.535 14.3232C28.31 13.7482 28.0183 13.2648 27.535 12.7814C27.0516 12.2981 26.5682 11.998 25.9932 11.7814C25.4432 11.5647 24.8098 11.423 23.8847 11.373C22.968 11.3313 22.6763 11.323 20.3095 11.323Z" fill="white"/>
<path d="M20.3088 15.5569C17.8419 15.5569 15.8418 17.557 15.8418 20.0239C15.8418 22.4907 17.8419 24.4908 20.3088 24.4908C22.7756 24.4908 24.7758 22.4907 24.7758 20.0239C24.7758 17.557 22.7756 15.5569 20.3088 15.5569ZM20.3088 22.9157C18.7087 22.9157 17.4086 21.6156 17.4086 20.0155C17.4086 18.4154 18.7087 17.1153 20.3088 17.1153C21.9089 17.1153 23.209 18.4154 23.209 20.0155C23.209 21.624 21.9172 22.9157 20.3088 22.9157Z" fill="white"/>
<path d="M26.0014 15.3733C26.0014 15.9483 25.5347 16.415 24.9597 16.415C24.3847 16.415 23.918 15.9483 23.918 15.3733C23.918 14.7982 24.3847 14.3315 24.9597 14.3315C25.5347 14.3315 26.0014 14.7982 26.0014 15.3733Z" fill="white"/>
</svg>
