<svg width="40" height="40" viewBox="0 0 40 40" fill="none" xmlns="http://www.w3.org/2000/svg">
<circle cx="20" cy="20" r="20" fill="#0091EA"/>
<path d="M15.9762 16.7507H12.6562V27.4691H15.9762V16.7507Z" fill="white"/>
<path d="M14.2993 15.352C15.3863 15.352 16.2626 14.4672 16.2626 13.3718C16.2626 12.2764 15.3863 11.3916 14.2993 11.3916C13.2123 11.3916 12.3359 12.2764 12.3359 13.3718C12.3359 14.4672 13.2123 15.352 14.2993 15.352Z" fill="white"/>
<path d="M21.2763 21.8487C21.2763 20.3404 21.9673 19.4472 23.2987 19.4472C24.5205 19.4472 25.1019 20.3067 25.1019 21.8487C25.1019 23.3907 25.1019 27.4775 25.1019 27.4775H28.4051C28.4051 27.4775 28.4051 23.5592 28.4051 20.6859C28.4051 17.8125 26.7788 16.4221 24.5036 16.4221C22.2285 16.4221 21.2763 18.1917 21.2763 18.1917V16.7507H18.0996V27.4691H21.2848C21.2763 27.4775 21.2763 23.5003 21.2763 21.8487Z" fill="white"/>
</svg>
