<svg width="40" height="40" viewBox="0 0 40 40" fill="none" xmlns="http://www.w3.org/2000/svg">
<circle cx="20" cy="20" r="20" fill="#0091EA"/>
<path d="M11 27.2979C12.723 28.372 14.7738 29 16.9744 29C24.2035 29 28.2957 23.0655 28.0522 17.7318C28.8107 17.1948 29.4756 16.5303 30 15.7749C29.2977 16.0752 28.5485 16.2755 27.762 16.3665C28.5673 15.9023 29.1853 15.1559 29.4756 14.2731C28.7265 14.71 27.893 15.0194 27.0034 15.1924C26.2824 14.4551 25.2711 14 24.1474 14C21.6284 14 19.7836 16.2846 20.3549 18.6511C17.1148 18.4964 14.24 16.9854 12.3204 14.6917C11.2997 16.3938 11.796 18.6238 13.5283 19.7524C12.8916 19.7251 12.2923 19.5613 11.7585 19.2791C11.721 21.0267 13.0133 22.6742 14.8862 23.0382C14.3337 23.1839 13.7344 23.2203 13.1257 23.1019C13.622 24.6038 15.0641 25.7051 16.7684 25.7324C15.1296 26.9794 13.0695 27.5346 11 27.2979Z" fill="white"/>
</svg>
