<svg width="80" height="80" viewBox="0 0 80 80" fill="none" xmlns="http://www.w3.org/2000/svg">
<rect width="80" height="80" fill="white"/>
<path d="M40 24.4453C37.8677 24.4453 36.1328 26.1802 36.1328 28.3125C36.1328 30.4448 37.8677 32.1797 40 32.1797C42.1323 32.1797 43.8672 30.4448 43.8672 28.3125C43.8672 26.1802 42.1323 24.4453 40 24.4453Z" fill="#0091EA"/>
<path d="M40 24.4453C37.8677 24.4453 36.1328 26.1802 36.1328 28.3125C36.1328 30.4448 37.8677 32.1797 40 32.1797C42.1323 32.1797 43.8672 30.4448 43.8672 28.3125C43.8672 26.1802 42.1323 24.4453 40 24.4453Z" fill="url(#paint0_linear)"/>
<path d="M40 18C34.3137 18 29.6875 22.6262 29.6875 28.3125C29.6875 30.2625 30.235 32.1622 31.2713 33.8061L40 47.7344L48.7287 33.8061C49.765 32.1622 50.3125 30.2625 50.3125 28.3125C50.3125 22.6262 45.6863 18 40 18ZM40 34.7578C36.4464 34.7578 33.5547 31.8661 33.5547 28.3125C33.5547 24.7589 36.4464 21.8672 40 21.8672C43.5536 21.8672 46.4453 24.7589 46.4453 28.3125C46.4453 31.8661 43.5536 34.7578 40 34.7578Z" fill="#0091EA"/>
<path d="M40 18C34.3137 18 29.6875 22.6262 29.6875 28.3125C29.6875 30.2625 30.235 32.1622 31.2713 33.8061L40 47.7344L48.7287 33.8061C49.765 32.1622 50.3125 30.2625 50.3125 28.3125C50.3125 22.6262 45.6863 18 40 18ZM40 34.7578C36.4464 34.7578 33.5547 31.8661 33.5547 28.3125C33.5547 24.7589 36.4464 21.8672 40 21.8672C43.5536 21.8672 46.4453 24.7589 46.4453 28.3125C46.4453 31.8661 43.5536 34.7578 40 34.7578Z" fill="url(#paint1_linear)"/>
<path d="M33.7263 62H46.2695L45.2782 54.1797H34.6928L33.7263 62Z" fill="#0091EA"/>
<path d="M33.7263 62H46.2695L45.2782 54.1797H34.6928L33.7263 62Z" fill="url(#paint2_linear)"/>
<path d="M35.0149 51.6016H39.3903L35.739 45.8105L35.0149 51.6016Z" fill="#0091EA"/>
<path d="M35.0149 51.6016H39.3903L35.739 45.8105L35.0149 51.6016Z" fill="url(#paint3_linear)"/>
<path d="M47.5476 51.6016H57.7034L54.4807 43.8672H46.5557L47.5476 51.6016Z" fill="#0091EA"/>
<path d="M47.5476 51.6016H57.7034L54.4807 43.8672H46.5557L47.5476 51.6016Z" fill="url(#paint4_linear)"/>
<path d="M22.2966 51.6016H32.4171L33.3839 43.8672H25.5193L22.2966 51.6016Z" fill="#0091EA"/>
<path d="M22.2966 51.6016H32.4171L33.3839 43.8672H25.5193L22.2966 51.6016Z" fill="url(#paint5_linear)"/>
<path d="M40.6096 51.6016H44.9474L44.2146 45.8848L40.6096 51.6016Z" fill="#0091EA"/>
<path d="M40.6096 51.6016H44.9474L44.2146 45.8848L40.6096 51.6016Z" fill="url(#paint6_linear)"/>
<path d="M32.0948 54.1797H21.2223L18 62H31.1283L32.0948 54.1797Z" fill="#0091EA"/>
<path d="M32.0948 54.1797H21.2223L18 62H31.1283L32.0948 54.1797Z" fill="url(#paint7_linear)"/>
<path d="M58.7777 54.1797H47.8781L48.8697 62H62L58.7777 54.1797Z" fill="#0091EA"/>
<path d="M58.7777 54.1797H47.8781L48.8697 62H62L58.7777 54.1797Z" fill="url(#paint8_linear)"/>
<defs>
<linearGradient id="paint0_linear" x1="43.8672" y1="32.1481" x2="35.9222" y2="24.669" gradientUnits="userSpaceOnUse">
<stop stop-color="#2F80ED"/>
<stop offset="1" stop-color="#56CCF2"/>
</linearGradient>
<linearGradient id="paint1_linear" x1="50.3125" y1="47.613" x2="22.2963" y2="29.3194" gradientUnits="userSpaceOnUse">
<stop stop-color="#2F80ED"/>
<stop offset="1" stop-color="#56CCF2"/>
</linearGradient>
<linearGradient id="paint2_linear" x1="46.2695" y1="61.9681" x2="38.8595" y2="50.7799" gradientUnits="userSpaceOnUse">
<stop stop-color="#2F80ED"/>
<stop offset="1" stop-color="#56CCF2"/>
</linearGradient>
<linearGradient id="paint3_linear" x1="39.3903" y1="51.578" x2="33.7607" y2="47.5739" gradientUnits="userSpaceOnUse">
<stop stop-color="#2F80ED"/>
<stop offset="1" stop-color="#56CCF2"/>
</linearGradient>
<linearGradient id="paint4_linear" x1="57.7034" y1="51.57" x2="50.1005" y2="41.2545" gradientUnits="userSpaceOnUse">
<stop stop-color="#2F80ED"/>
<stop offset="1" stop-color="#56CCF2"/>
</linearGradient>
<linearGradient id="paint5_linear" x1="33.3839" y1="51.57" x2="25.769" y2="41.294" gradientUnits="userSpaceOnUse">
<stop stop-color="#2F80ED"/>
<stop offset="1" stop-color="#56CCF2"/>
</linearGradient>
<linearGradient id="paint6_linear" x1="44.9474" y1="51.5783" x2="39.3822" y2="47.6031" gradientUnits="userSpaceOnUse">
<stop stop-color="#2F80ED"/>
<stop offset="1" stop-color="#56CCF2"/>
</linearGradient>
<linearGradient id="paint7_linear" x1="32.0948" y1="61.9681" x2="25.0538" y2="50.0222" gradientUnits="userSpaceOnUse">
<stop stop-color="#2F80ED"/>
<stop offset="1" stop-color="#56CCF2"/>
</linearGradient>
<linearGradient id="paint8_linear" x1="62" y1="61.9681" x2="54.9656" y2="50.0103" gradientUnits="userSpaceOnUse">
<stop stop-color="#2F80ED"/>
<stop offset="1" stop-color="#56CCF2"/>
</linearGradient>
</defs>
</svg>
