<svg width="80" height="80" viewBox="0 0 80 80" fill="none" xmlns="http://www.w3.org/2000/svg">
<rect width="80" height="80" fill="white"/>
<path d="M31.6291 32.9037C31.7735 32.7593 31.8546 32.5634 31.8546 32.3592C31.8546 32.1551 31.7735 31.9592 31.6291 31.8148L25.0953 25.281C25.0238 25.2094 24.9389 25.1526 24.8454 25.1139C24.7519 25.0751 24.6517 25.0552 24.5505 25.0552C24.4493 25.0552 24.3491 25.0751 24.2556 25.1139C24.1621 25.1526 24.0772 25.2094 24.0057 25.281L22.3724 26.9143L29.9958 34.5377L31.6291 32.9037Z" fill="black"/>
<path d="M31.6291 32.9037C31.7735 32.7593 31.8546 32.5634 31.8546 32.3592C31.8546 32.1551 31.7735 31.9592 31.6291 31.8148L25.0953 25.281C25.0238 25.2094 24.9389 25.1526 24.8454 25.1139C24.7519 25.0751 24.6517 25.0552 24.5505 25.0552C24.4493 25.0552 24.3491 25.0751 24.2556 25.1139C24.1621 25.1526 24.0772 25.2094 24.0057 25.281L22.3724 26.9143L29.9958 34.5377L31.6291 32.9037Z" fill="url(#paint0_linear)"/>
<path d="M28.3618 36.1709L28.9062 35.6265L21.299 28.0193C19.0852 30.5168 17.9074 33.7646 18.0057 37.1005C18.104 40.4364 19.471 43.6093 21.828 45.972L32.7179 56.862C35.0806 59.2191 38.2535 60.5862 41.5894 60.6845C44.9254 60.7828 48.1733 59.6049 50.6707 57.391L43.0634 49.7837L42.519 50.3282C41.2183 51.626 39.4559 52.3549 37.6184 52.3549C35.781 52.3549 34.0186 51.626 32.7179 50.3282L28.3618 45.972C27.0639 44.6713 26.3351 42.9089 26.3351 41.0715C26.3351 39.2341 27.0639 37.4716 28.3618 36.1709Z" fill="black"/>
<path d="M28.3618 36.1709L28.9062 35.6265L21.299 28.0193C19.0852 30.5168 17.9074 33.7646 18.0057 37.1005C18.104 40.4364 19.471 43.6093 21.828 45.972L32.7179 56.862C35.0806 59.2191 38.2535 60.5862 41.5894 60.6845C44.9254 60.7828 48.1733 59.6049 50.6707 57.391L43.0634 49.7837L42.519 50.3282C41.2183 51.626 39.4559 52.3549 37.6184 52.3549C35.781 52.3549 34.0186 51.626 32.7179 50.3282L28.3618 45.972C27.0639 44.6713 26.3351 42.9089 26.3351 41.0715C26.3351 39.2341 27.0639 37.4716 28.3618 36.1709Z" fill="url(#paint1_linear)"/>
<path d="M27.1182 20.9241V25.13L32.7179 30.7298C33.151 31.163 33.3943 31.7505 33.3943 32.363C33.3943 32.9756 33.151 33.5631 32.7179 33.9963L30.5395 36.1709L29.4506 37.2597C28.4989 38.2137 27.9412 39.4909 27.8882 40.8374L39.2355 31.4575L27.1182 20.9241Z" fill="black"/>
<path d="M27.1182 20.9241V25.13L32.7179 30.7298C33.151 31.163 33.3943 31.7505 33.3943 32.363C33.3943 32.9756 33.151 33.5631 32.7179 33.9963L30.5395 36.1709L29.4506 37.2597C28.4989 38.2137 27.9412 39.4909 27.8882 40.8374L39.2355 31.4575L27.1182 20.9241Z" fill="url(#paint2_linear)"/>
<path d="M53.4097 54.6842C53.4813 54.6127 53.5381 54.5278 53.5768 54.4343C53.6156 54.3408 53.6355 54.2406 53.6355 54.1394C53.6355 54.0382 53.6156 53.938 53.5768 53.8445C53.5381 53.7511 53.4813 53.6661 53.4097 53.5946L46.8751 47.0608C46.8036 46.9892 46.7186 46.9324 46.6252 46.8937C46.5317 46.8549 46.4315 46.835 46.3303 46.835C46.2291 46.835 46.1289 46.8549 46.0354 46.8937C45.9419 46.9324 45.857 46.9892 45.7855 47.0608L44.1522 48.6948L51.7756 56.3182L53.4097 54.6842Z" fill="black"/>
<path d="M53.4097 54.6842C53.4813 54.6127 53.5381 54.5278 53.5768 54.4343C53.6156 54.3408 53.6355 54.2406 53.6355 54.1394C53.6355 54.0382 53.6156 53.938 53.5768 53.8445C53.5381 53.7511 53.4813 53.6661 53.4097 53.5946L46.8751 47.0608C46.8036 46.9892 46.7186 46.9324 46.6252 46.8937C46.5317 46.8549 46.4315 46.835 46.3303 46.835C46.2291 46.835 46.1289 46.8549 46.0354 46.8937C45.9419 46.9324 45.857 46.9892 45.7855 47.0608L44.1522 48.6948L51.7756 56.3182L53.4097 54.6842Z" fill="url(#paint3_linear)"/>
<path d="M61.0001 20.9202L48.8827 31.4566L61.0001 41.4664V20.9202Z" fill="black"/>
<path d="M61.0001 20.9202L48.8827 31.4566L61.0001 41.4664V20.9202Z" fill="url(#paint4_linear)"/>
<path d="M44.5642 33.1677L59.711 20H28.4072L43.5539 33.1677C43.6941 33.2895 43.8735 33.3566 44.0591 33.3566C44.2447 33.3566 44.4241 33.2895 44.5642 33.1677Z" fill="black"/>
<path d="M44.5642 33.1677L59.711 20H28.4072L43.5539 33.1677C43.6941 33.2895 43.8735 33.3566 44.0591 33.3566C44.2447 33.3566 44.4241 33.2895 44.5642 33.1677Z" fill="url(#paint5_linear)"/>
<path d="M47.7045 32.4816L45.5753 34.3297C45.1537 34.6931 44.6156 34.893 44.0591 34.893C43.5025 34.893 42.9645 34.6931 42.5429 34.3297L40.4137 32.4778L28.495 42.3312H59.6286L47.7045 32.4816Z" fill="black"/>
<path d="M47.7045 32.4816L45.5753 34.3297C45.1537 34.6931 44.6156 34.893 44.0591 34.893C43.5025 34.893 42.9645 34.6931 42.5429 34.3297L40.4137 32.4778L28.495 42.3312H59.6286L47.7045 32.4816Z" fill="url(#paint6_linear)"/>
<defs>
<linearGradient id="paint0_linear" x1="31.8546" y1="34.499" x2="22.1139" y2="25.3299" gradientUnits="userSpaceOnUse">
<stop stop-color="#2F80ED"/>
<stop offset="1" stop-color="#56CCF2"/>
</linearGradient>
<linearGradient id="paint1_linear" x1="50.6707" y1="60.5569" x2="17.1101" y2="28.9646" gradientUnits="userSpaceOnUse">
<stop stop-color="#2F80ED"/>
<stop offset="1" stop-color="#56CCF2"/>
</linearGradient>
<linearGradient id="paint2_linear" x1="39.2355" y1="40.7561" x2="21.5583" y2="30.6301" gradientUnits="userSpaceOnUse">
<stop stop-color="#2F80ED"/>
<stop offset="1" stop-color="#56CCF2"/>
</linearGradient>
<linearGradient id="paint3_linear" x1="53.6355" y1="56.2795" x2="43.894" y2="47.1093" gradientUnits="userSpaceOnUse">
<stop stop-color="#2F80ED"/>
<stop offset="1" stop-color="#56CCF2"/>
</linearGradient>
<linearGradient id="paint4_linear" x1="61.0001" y1="41.3826" x2="43.0539" y2="31.4192" gradientUnits="userSpaceOnUse">
<stop stop-color="#2F80ED"/>
<stop offset="1" stop-color="#56CCF2"/>
</linearGradient>
<linearGradient id="paint5_linear" x1="59.711" y1="33.302" x2="49.3742" y2="10.4966" gradientUnits="userSpaceOnUse">
<stop stop-color="#2F80ED"/>
<stop offset="1" stop-color="#56CCF2"/>
</linearGradient>
<linearGradient id="paint6_linear" x1="59.6286" y1="42.291" x2="53.5026" y2="24.0701" gradientUnits="userSpaceOnUse">
<stop stop-color="#2F80ED"/>
<stop offset="1" stop-color="#56CCF2"/>
</linearGradient>
</defs>
</svg>
