<svg width="1440" height="946" viewBox="0 0 1440 946" fill="none" xmlns="http://www.w3.org/2000/svg">
<path d="M602.542 20.6161L602.356 21.1865L602.542 20.6161ZM1276 240.425L1276.19 239.855L1276 241.025L1276 240.425ZM509.458 20.6161L509.644 21.1865L509.458 20.6161ZM-164 240.425V241.025L-164.186 239.855L-164 240.425ZM1276 240.426V239.826H1276.6V240.426H1276ZM-164 240.426H-164.6V239.826H-164V240.426ZM1276 1029.43H1276.6V1030.03H1276V1029.43ZM-164 1029.43V1030.03H-164.6V1029.43H-164ZM602.728 20.0457L1276.19 239.855L1275.81 240.996L602.356 21.1865L602.728 20.0457ZM509.272 20.0457C539.636 10.1353 572.364 10.1353 602.728 20.0457L602.356 21.1865C572.234 11.355 539.766 11.355 509.644 21.1865L509.272 20.0457ZM-164.186 239.855L509.272 20.0457L509.644 21.1865L-163.814 240.996L-164.186 239.855ZM1276 241.025L-164 241.025V239.825L1276 239.825L1276 241.025ZM1276 241.026H-164V239.826H1276V241.026ZM1275.4 1029.43V240.426H1276.6V1029.43H1275.4ZM-164 1028.83H1276V1030.03H-164V1028.83ZM-163.4 240.426V1029.43H-164.6V240.426H-163.4Z" fill="#56CCF2"/>
<path d="M1219.54 116.616L1219.36 117.186L1219.54 116.616ZM1893 336.425L1893.19 335.855L1893 337.025L1893 336.425ZM1126.46 116.616L1126.64 117.187L1126.46 116.616ZM453 336.425V337.025L452.814 335.855L453 336.425ZM1893 336.426V335.826H1893.6V336.426H1893ZM453 336.426H452.4V335.826H453V336.426ZM1893 1125.43H1893.6V1126.03H1893V1125.43ZM453 1125.43V1126.03H452.4V1125.43H453ZM1219.73 116.046L1893.19 335.855L1892.81 336.996L1219.36 117.186L1219.73 116.046ZM1126.27 116.046C1156.64 106.135 1189.36 106.135 1219.73 116.046L1219.36 117.186C1189.23 107.355 1156.77 107.355 1126.64 117.187L1126.27 116.046ZM452.814 335.855L1126.27 116.046L1126.64 117.187L453.186 336.996L452.814 335.855ZM1893 337.025L453 337.025V335.825L1893 335.825L1893 337.025ZM1893 337.026H453V335.826H1893V337.026ZM1892.4 1125.43V336.426H1893.6V1125.43H1892.4ZM453 1124.83H1893V1126.03H453V1124.83ZM453.6 336.426V1125.43H452.4V336.426H453.6Z" fill="#56CCF2"/>
<path fill-rule="evenodd" clip-rule="evenodd" d="M0 227.212L673.458 7.40321C703.701 -2.46775 736.299 -2.46773 766.542 7.40322L1440 227.212L0 227.212ZM1440 227.213H0.00012207V1136.21H1440V227.213Z" fill="url(#paint0_linear)"/>
<defs>
<linearGradient id="paint0_linear" x1="1440" y1="683.04" x2="721.117" y2="-15.7551" gradientUnits="userSpaceOnUse">
<stop stop-color="#2F80ED"/>
<stop offset="1" stop-color="#56CCF2"/>
</linearGradient>
</defs>
</svg>
