<svg width="32" height="32" viewBox="0 0 32 32" fill="none" xmlns="http://www.w3.org/2000/svg">
<circle cx="16" cy="16" r="15.25" stroke="#0091EA" stroke-width="1.5"/>
<path d="M14.64 13.32H17.14V24H14.64V13.32ZM15.9 11.56C15.4467 11.56 15.0667 11.42 14.76 11.14C14.4533 10.8467 14.3 10.4867 14.3 10.06C14.3 9.63333 14.4533 9.28 14.76 9C15.0667 8.70667 15.4467 8.56 15.9 8.56C16.3533 8.56 16.7333 8.7 17.04 8.98C17.3467 9.24667 17.5 9.58667 17.5 10C17.5 10.44 17.3467 10.8133 17.04 11.12C16.7467 11.4133 16.3667 11.56 15.9 11.56Z" fill="#0091EA"/>
</svg>
