<svg width="13" height="14" viewBox="0 0 13 14" fill="none" xmlns="http://www.w3.org/2000/svg">
<path d="M2.99876 4.3855H0.327332V13.01H2.99876V4.3855Z" fill="#0091EA"/>
<path d="M1.64963 3.25998C2.52429 3.25998 3.22944 2.54805 3.22944 1.66661C3.22944 0.785172 2.52429 0.0732422 1.64963 0.0732422C0.774974 0.0732422 0.0698242 0.785172 0.0698242 1.66661C0.0698242 2.54805 0.774974 3.25998 1.64963 3.25998Z" fill="#0091EA"/>
<path d="M7.26376 8.4876C7.26376 7.27393 7.81975 6.55522 8.89103 6.55522C9.87417 6.55522 10.342 7.2468 10.342 8.4876C10.342 9.72839 10.342 13.0168 10.342 13.0168H12.9999C12.9999 13.0168 12.9999 9.86399 12.9999 7.55192C12.9999 5.23984 11.6913 4.12109 9.86061 4.12109C8.02993 4.12109 7.26376 5.54495 7.26376 5.54495V4.38553H4.7076V13.01H7.27054C7.26376 13.0168 7.26376 9.81653 7.26376 8.4876Z" fill="#0091EA"/>
</svg>
