<svg width="80" height="80" viewBox="0 0 80 80" fill="none" xmlns="http://www.w3.org/2000/svg">
<rect width="80" height="80" fill="white"/>
<path d="M58.8281 25.6052C58.2249 25.001 57.2463 25 56.6432 25.6027L38.1056 44.0913L31.4173 36.8271C30.8394 36.1998 29.8623 36.1591 29.2339 36.737C28.606 37.3149 28.5658 38.2925 29.1438 38.9204L36.9214 47.3671C37.2063 47.6767 37.6049 47.8565 38.0252 47.8652C38.0365 47.8657 38.0474 47.8657 38.0582 47.8657C38.4667 47.8657 38.8597 47.7034 39.1491 47.415L58.825 27.7906C59.4297 27.188 59.4308 26.2094 58.8281 25.6052Z" fill="black"/>
<path d="M58.8281 25.6052C58.2249 25.001 57.2463 25 56.6432 25.6027L38.1056 44.0913L31.4173 36.8271C30.8394 36.1998 29.8623 36.1591 29.2339 36.737C28.606 37.3149 28.5658 38.2925 29.1438 38.9204L36.9214 47.3671C37.2063 47.6767 37.6049 47.8565 38.0252 47.8652C38.0365 47.8657 38.0474 47.8657 38.0582 47.8657C38.4667 47.8657 38.8597 47.7034 39.1491 47.415L58.825 27.7906C59.4297 27.188 59.4308 26.2094 58.8281 25.6052Z" fill="url(#paint0_linear)"/>
<path d="M58.4547 38.9547C57.6013 38.9547 56.9095 39.6464 56.9095 40.5C56.9095 50.1 49.1 57.9095 39.5 57.9095C29.9006 57.9095 22.0905 50.1 22.0905 40.5C22.0905 30.9006 29.9006 23.0905 39.5 23.0905C40.3535 23.0905 41.0453 22.3987 41.0453 21.5453C41.0453 20.6917 40.3535 20 39.5 20C28.1962 20 19 29.1962 19 40.5C19 51.8033 28.1962 61 39.5 61C50.8033 61 60 51.8033 60 40.5C60 39.6465 59.3083 38.9547 58.4547 38.9547Z" fill="black"/>
<path d="M58.4547 38.9547C57.6013 38.9547 56.9095 39.6464 56.9095 40.5C56.9095 50.1 49.1 57.9095 39.5 57.9095C29.9006 57.9095 22.0905 50.1 22.0905 40.5C22.0905 30.9006 29.9006 23.0905 39.5 23.0905C40.3535 23.0905 41.0453 22.3987 41.0453 21.5453C41.0453 20.6917 40.3535 20 39.5 20C28.1962 20 19 29.1962 19 40.5C19 51.8033 28.1962 61 39.5 61C50.8033 61 60 51.8033 60 40.5C60 39.6465 59.3083 38.9547 58.4547 38.9547Z" fill="url(#paint1_linear)"/>
<defs>
<linearGradient id="paint0_linear" x1="59.2793" y1="47.773" x2="36.5387" y2="18.9868" gradientUnits="userSpaceOnUse">
<stop stop-color="#2F80ED"/>
<stop offset="1" stop-color="#56CCF2"/>
</linearGradient>
<linearGradient id="paint1_linear" x1="60" y1="60.8327" x2="17.8836" y2="21.186" gradientUnits="userSpaceOnUse">
<stop stop-color="#2F80ED"/>
<stop offset="1" stop-color="#56CCF2"/>
</linearGradient>
</defs>
</svg>
